<?xml version="1.0" encoding="utf-8" standalone="no"?>
<!DOCTYPE svg PUBLIC "-//W3C//DTD SVG 1.1//EN"
  "http://www.w3.org/Graphics/SVG/1.1/DTD/svg11.dtd">
<svg xmlns:xlink="http://www.w3.org/1999/xlink" width="576pt" height="648pt" viewBox="0 0 576 648" xmlns="http://www.w3.org/2000/svg" version="1.1">
 <metadata>
  <rdf:RDF xmlns:dc="http://purl.org/dc/elements/1.1/" xmlns:cc="http://creativecommons.org/ns#" xmlns:rdf="http://www.w3.org/1999/02/22-rdf-syntax-ns#">
   <cc:Work>
    <dc:type rdf:resource="http://purl.org/dc/dcmitype/StillImage"/>
    <dc:date>2023-09-08T20:48:33.379730</dc:date>
    <dc:format>image/svg+xml</dc:format>
    <dc:creator>
     <cc:Agent>
      <dc:title>Matplotlib v3.5.1, https://matplotlib.org/</dc:title>
     </cc:Agent>
    </dc:creator>
   </cc:Work>
  </rdf:RDF>
 </metadata>
 <defs>
  <style type="text/css">*{stroke-linejoin: round; stroke-linecap: butt}</style>
 </defs>
 <g id="figure_1">
  <g id="patch_1">
   <path d="M 0 648 
L 576 648 
L 576 0 
L 0 0 
L 0 648 
z
" style="fill: none"/>
  </g>
  <g id="patch_2">
   <path d="M 2.834646 595.131554 
L 545.097754 595.131554 
L 545.097754 52.868446 
L 2.834646 52.868446 
L 2.834646 595.131554 
z
" style="fill: none"/>
  </g>
  <g id="pane3d_1">
   <g id="patch_3">
    <path d="M 42.959079 398.065037 
L 345.155751 310.828372 
L 345.155751 84.180867 
L 42.959079 171.417532 
" style="fill: #f2f2f2; opacity: 0.5; stroke: #f2f2f2; stroke-linejoin: miter"/>
   </g>
  </g>
  <g id="pane3d_2">
   <g id="patch_4">
    <path d="M 345.155751 310.828372 
L 519.629081 461.926708 
L 519.629081 235.279204 
L 345.155751 84.180867 
" style="fill: #e6e6e6; opacity: 0.5; stroke: #e6e6e6; stroke-linejoin: miter"/>
   </g>
  </g>
  <g id="pane3d_3">
   <g id="patch_5">
    <path d="M 42.959079 398.065037 
L 217.432409 549.163373 
L 519.629081 461.926708 
L 345.155751 310.828372 
" style="fill: #ececec; opacity: 0.5; stroke: #ececec; stroke-linejoin: miter"/>
   </g>
  </g>
  <g id="axis3d_1">
   <g id="line2d_1">
    <path d="M 42.959079 398.065037 
L 217.432409 549.163373 
" style="fill: none; stroke: #000000; stroke-width: 0.8; stroke-linecap: square"/>
   </g>
   <g id="text_1">
    <!-- X -->
    <g transform="translate(96.595924 506.917327)scale(0.2 -0.2)">
     <defs>
      <path id="DejaVuSans-58" d="M 403 4666 
L 1081 4666 
L 2241 2931 
L 3406 4666 
L 4084 4666 
L 2584 2425 
L 4184 0 
L 3506 0 
L 2194 1984 
L 872 0 
L 191 0 
L 1856 2491 
L 403 4666 
z
" transform="scale(0.015625)"/>
     </defs>
     <use xlink:href="#DejaVuSans-58"/>
    </g>
   </g>
   <g id="Line3DCollection_1">
    <path d="M 51.188953 405.192317 
L 353.385625 317.955652 
L 353.385625 91.308147 
" style="fill: none; stroke: #b0b0b0; stroke-width: 0.8"/>
    <path d="M 90.692348 439.403261 
L 392.889021 352.166596 
L 392.889021 125.519091 
" style="fill: none; stroke: #b0b0b0; stroke-width: 0.8"/>
    <path d="M 130.195744 473.614205 
L 432.392416 386.37754 
L 432.392416 159.730036 
" style="fill: none; stroke: #b0b0b0; stroke-width: 0.8"/>
    <path d="M 169.699139 507.825149 
L 471.895811 420.588484 
L 471.895811 193.94098 
" style="fill: none; stroke: #b0b0b0; stroke-width: 0.8"/>
    <path d="M 209.202535 542.036093 
L 511.399207 454.799428 
L 511.399207 228.151924 
" style="fill: none; stroke: #b0b0b0; stroke-width: 0.8"/>
   </g>
   <g id="xtick_1">
    <g id="line2d_2">
     <path d="M 281.29408 316.67212 
" clip-path="url(#pfd03fb5464)" style="fill: none; stroke: #000000; stroke-opacity: 0.1; stroke-width: 0.5; stroke-linecap: square"/>
    </g>
    <g id="line2d_3">
     <path d="M 53.606526 404.494423 
L 46.353806 406.588103 
" style="fill: none; stroke: #000000; stroke-width: 0.8; stroke-linecap: square"/>
    </g>
    <g id="text_2">
     <!-- $-1.0$ -->
     <g transform="translate(24.304036 427.091253)scale(0.12 -0.12)">
      <defs>
       <path id="DejaVuSans-2212" d="M 678 2272 
L 4684 2272 
L 4684 1741 
L 678 1741 
L 678 2272 
z
" transform="scale(0.015625)"/>
       <path id="DejaVuSans-31" d="M 794 531 
L 1825 531 
L 1825 4091 
L 703 3866 
L 703 4441 
L 1819 4666 
L 2450 4666 
L 2450 531 
L 3481 531 
L 3481 0 
L 794 0 
L 794 531 
z
" transform="scale(0.015625)"/>
       <path id="DejaVuSans-2e" d="M 684 794 
L 1344 794 
L 1344 0 
L 684 0 
L 684 794 
z
" transform="scale(0.015625)"/>
       <path id="DejaVuSans-30" d="M 2034 4250 
Q 1547 4250 1301 3770 
Q 1056 3291 1056 2328 
Q 1056 1369 1301 889 
Q 1547 409 2034 409 
Q 2525 409 2770 889 
Q 3016 1369 3016 2328 
Q 3016 3291 2770 3770 
Q 2525 4250 2034 4250 
z
M 2034 4750 
Q 2819 4750 3233 4129 
Q 3647 3509 3647 2328 
Q 3647 1150 3233 529 
Q 2819 -91 2034 -91 
Q 1250 -91 836 529 
Q 422 1150 422 2328 
Q 422 3509 836 4129 
Q 1250 4750 2034 4750 
z
" transform="scale(0.015625)"/>
      </defs>
      <use xlink:href="#DejaVuSans-2212" transform="translate(0 0.78125)"/>
      <use xlink:href="#DejaVuSans-31" transform="translate(83.789062 0.78125)"/>
      <use xlink:href="#DejaVuSans-2e" transform="translate(147.412109 0.78125)"/>
      <use xlink:href="#DejaVuSans-30" transform="translate(179.199219 0.78125)"/>
     </g>
    </g>
   </g>
   <g id="xtick_2">
    <g id="line2d_4">
     <path d="M 281.29408 316.67212 
" clip-path="url(#pfd03fb5464)" style="fill: none; stroke: #000000; stroke-opacity: 0.1; stroke-width: 0.5; stroke-linecap: square"/>
    </g>
    <g id="line2d_5">
     <path d="M 93.109922 438.705367 
L 85.857201 440.799047 
" style="fill: none; stroke: #000000; stroke-width: 0.8; stroke-linecap: square"/>
    </g>
    <g id="text_3">
     <!-- $-0.5$ -->
     <g transform="translate(63.807431 461.302197)scale(0.12 -0.12)">
      <defs>
       <path id="DejaVuSans-35" d="M 691 4666 
L 3169 4666 
L 3169 4134 
L 1269 4134 
L 1269 2991 
Q 1406 3038 1543 3061 
Q 1681 3084 1819 3084 
Q 2600 3084 3056 2656 
Q 3513 2228 3513 1497 
Q 3513 744 3044 326 
Q 2575 -91 1722 -91 
Q 1428 -91 1123 -41 
Q 819 9 494 109 
L 494 744 
Q 775 591 1075 516 
Q 1375 441 1709 441 
Q 2250 441 2565 725 
Q 2881 1009 2881 1497 
Q 2881 1984 2565 2268 
Q 2250 2553 1709 2553 
Q 1456 2553 1204 2497 
Q 953 2441 691 2322 
L 691 4666 
z
" transform="scale(0.015625)"/>
      </defs>
      <use xlink:href="#DejaVuSans-2212" transform="translate(0 0.78125)"/>
      <use xlink:href="#DejaVuSans-30" transform="translate(83.789062 0.78125)"/>
      <use xlink:href="#DejaVuSans-2e" transform="translate(147.412109 0.78125)"/>
      <use xlink:href="#DejaVuSans-35" transform="translate(179.199219 0.78125)"/>
     </g>
    </g>
   </g>
   <g id="xtick_3">
    <g id="line2d_6">
     <path d="M 281.29408 316.67212 
" clip-path="url(#pfd03fb5464)" style="fill: none; stroke: #000000; stroke-opacity: 0.1; stroke-width: 0.5; stroke-linecap: square"/>
    </g>
    <g id="line2d_7">
     <path d="M 132.613317 472.916311 
L 125.360597 475.009991 
" style="fill: none; stroke: #000000; stroke-width: 0.8; stroke-linecap: square"/>
    </g>
    <g id="text_4">
     <!-- $0.0$ -->
     <g transform="translate(108.290827 495.513141)scale(0.12 -0.12)">
      <use xlink:href="#DejaVuSans-30" transform="translate(0 0.78125)"/>
      <use xlink:href="#DejaVuSans-2e" transform="translate(63.623047 0.78125)"/>
      <use xlink:href="#DejaVuSans-30" transform="translate(95.410156 0.78125)"/>
     </g>
    </g>
   </g>
   <g id="xtick_4">
    <g id="line2d_8">
     <path d="M 281.29408 316.67212 
" clip-path="url(#pfd03fb5464)" style="fill: none; stroke: #000000; stroke-opacity: 0.1; stroke-width: 0.5; stroke-linecap: square"/>
    </g>
    <g id="line2d_9">
     <path d="M 172.116713 507.127256 
L 164.863992 509.220935 
" style="fill: none; stroke: #000000; stroke-width: 0.8; stroke-linecap: square"/>
    </g>
    <g id="text_5">
     <!-- $0.5$ -->
     <g transform="translate(147.794222 529.724085)scale(0.12 -0.12)">
      <use xlink:href="#DejaVuSans-30" transform="translate(0 0.78125)"/>
      <use xlink:href="#DejaVuSans-2e" transform="translate(63.623047 0.78125)"/>
      <use xlink:href="#DejaVuSans-35" transform="translate(95.410156 0.78125)"/>
     </g>
    </g>
   </g>
   <g id="xtick_5">
    <g id="line2d_10">
     <path d="M 281.29408 316.67212 
" clip-path="url(#pfd03fb5464)" style="fill: none; stroke: #000000; stroke-opacity: 0.1; stroke-width: 0.5; stroke-linecap: square"/>
    </g>
    <g id="line2d_11">
     <path d="M 211.620108 541.3382 
L 204.367388 543.43188 
" style="fill: none; stroke: #000000; stroke-width: 0.8; stroke-linecap: square"/>
    </g>
    <g id="text_6">
     <!-- $1.0$ -->
     <g transform="translate(187.297618 563.935029)scale(0.12 -0.12)">
      <use xlink:href="#DejaVuSans-31" transform="translate(0 0.78125)"/>
      <use xlink:href="#DejaVuSans-2e" transform="translate(63.623047 0.78125)"/>
      <use xlink:href="#DejaVuSans-30" transform="translate(95.410156 0.78125)"/>
     </g>
    </g>
   </g>
  </g>
  <g id="axis3d_2">
   <g id="line2d_12">
    <path d="M 519.629081 461.926708 
L 217.432409 549.163373 
" style="fill: none; stroke: #000000; stroke-width: 0.8; stroke-linecap: square"/>
   </g>
   <g id="text_7">
    <!-- Y -->
    <g transform="translate(377.866948 544.501065)scale(0.2 -0.2)">
     <defs>
      <path id="DejaVuSans-59" d="M -13 4666 
L 666 4666 
L 1959 2747 
L 3244 4666 
L 3922 4666 
L 2272 2222 
L 2272 0 
L 1638 0 
L 1638 2222 
L -13 4666 
z
" transform="scale(0.015625)"/>
     </defs>
     <use xlink:href="#DejaVuSans-59"/>
    </g>
   </g>
   <g id="Line3DCollection_2">
    <path d="M 57.213639 167.302595 
L 57.213639 393.9501 
L 231.686969 545.048436 
" style="fill: none; stroke: #b0b0b0; stroke-width: 0.8"/>
    <path d="M 125.635527 147.550898 
L 125.635527 374.198402 
L 300.108857 525.296738 
" style="fill: none; stroke: #b0b0b0; stroke-width: 0.8"/>
    <path d="M 194.057415 127.7992 
L 194.057415 354.446704 
L 368.530745 505.54504 
" style="fill: none; stroke: #b0b0b0; stroke-width: 0.8"/>
    <path d="M 262.479303 108.047502 
L 262.479303 334.695006 
L 436.952633 485.793343 
" style="fill: none; stroke: #b0b0b0; stroke-width: 0.8"/>
    <path d="M 330.901191 88.295804 
L 330.901191 314.943309 
L 505.374521 466.041645 
" style="fill: none; stroke: #b0b0b0; stroke-width: 0.8"/>
   </g>
   <g id="xtick_6">
    <g id="line2d_13">
     <path d="M 281.29408 316.67212 
" clip-path="url(#pfd03fb5464)" style="fill: none; stroke: #000000; stroke-opacity: 0.1; stroke-width: 0.5; stroke-linecap: square"/>
    </g>
    <g id="line2d_14">
     <path d="M 230.291182 543.839649 
L 234.478542 547.466009 
" style="fill: none; stroke: #000000; stroke-width: 0.8; stroke-linecap: square"/>
    </g>
    <g id="text_8">
     <!-- $-1.0$ -->
     <g transform="translate(224.211216 569.547707)scale(0.12 -0.12)">
      <use xlink:href="#DejaVuSans-2212" transform="translate(0 0.78125)"/>
      <use xlink:href="#DejaVuSans-31" transform="translate(83.789062 0.78125)"/>
      <use xlink:href="#DejaVuSans-2e" transform="translate(147.412109 0.78125)"/>
      <use xlink:href="#DejaVuSans-30" transform="translate(179.199219 0.78125)"/>
     </g>
    </g>
   </g>
   <g id="xtick_7">
    <g id="line2d_15">
     <path d="M 281.29408 316.67212 
" clip-path="url(#pfd03fb5464)" style="fill: none; stroke: #000000; stroke-opacity: 0.1; stroke-width: 0.5; stroke-linecap: square"/>
    </g>
    <g id="line2d_16">
     <path d="M 298.71307 524.087951 
L 302.90043 527.714311 
" style="fill: none; stroke: #000000; stroke-width: 0.8; stroke-linecap: square"/>
    </g>
    <g id="text_9">
     <!-- $-0.5$ -->
     <g transform="translate(292.633104 549.796009)scale(0.12 -0.12)">
      <use xlink:href="#DejaVuSans-2212" transform="translate(0 0.78125)"/>
      <use xlink:href="#DejaVuSans-30" transform="translate(83.789062 0.78125)"/>
      <use xlink:href="#DejaVuSans-2e" transform="translate(147.412109 0.78125)"/>
      <use xlink:href="#DejaVuSans-35" transform="translate(179.199219 0.78125)"/>
     </g>
    </g>
   </g>
   <g id="xtick_8">
    <g id="line2d_17">
     <path d="M 281.29408 316.67212 
" clip-path="url(#pfd03fb5464)" style="fill: none; stroke: #000000; stroke-opacity: 0.1; stroke-width: 0.5; stroke-linecap: square"/>
    </g>
    <g id="line2d_18">
     <path d="M 367.134958 504.336254 
L 371.322318 507.962614 
" style="fill: none; stroke: #000000; stroke-width: 0.8; stroke-linecap: square"/>
    </g>
    <g id="text_10">
     <!-- $0.0$ -->
     <g transform="translate(366.034992 530.044312)scale(0.12 -0.12)">
      <use xlink:href="#DejaVuSans-30" transform="translate(0 0.78125)"/>
      <use xlink:href="#DejaVuSans-2e" transform="translate(63.623047 0.78125)"/>
      <use xlink:href="#DejaVuSans-30" transform="translate(95.410156 0.78125)"/>
     </g>
    </g>
   </g>
   <g id="xtick_9">
    <g id="line2d_19">
     <path d="M 281.29408 316.67212 
" clip-path="url(#pfd03fb5464)" style="fill: none; stroke: #000000; stroke-opacity: 0.1; stroke-width: 0.5; stroke-linecap: square"/>
    </g>
    <g id="line2d_20">
     <path d="M 435.556846 484.584556 
L 439.744206 488.210916 
" style="fill: none; stroke: #000000; stroke-width: 0.8; stroke-linecap: square"/>
    </g>
    <g id="text_11">
     <!-- $0.5$ -->
     <g transform="translate(434.45688 510.292614)scale(0.12 -0.12)">
      <use xlink:href="#DejaVuSans-30" transform="translate(0 0.78125)"/>
      <use xlink:href="#DejaVuSans-2e" transform="translate(63.623047 0.78125)"/>
      <use xlink:href="#DejaVuSans-35" transform="translate(95.410156 0.78125)"/>
     </g>
    </g>
   </g>
   <g id="xtick_10">
    <g id="line2d_21">
     <path d="M 281.29408 316.67212 
" clip-path="url(#pfd03fb5464)" style="fill: none; stroke: #000000; stroke-opacity: 0.1; stroke-width: 0.5; stroke-linecap: square"/>
    </g>
    <g id="line2d_22">
     <path d="M 503.978734 464.832858 
L 508.166094 468.459218 
" style="fill: none; stroke: #000000; stroke-width: 0.8; stroke-linecap: square"/>
    </g>
    <g id="text_12">
     <!-- $1.0$ -->
     <g transform="translate(502.878768 490.540916)scale(0.12 -0.12)">
      <use xlink:href="#DejaVuSans-31" transform="translate(0 0.78125)"/>
      <use xlink:href="#DejaVuSans-2e" transform="translate(63.623047 0.78125)"/>
      <use xlink:href="#DejaVuSans-30" transform="translate(95.410156 0.78125)"/>
     </g>
    </g>
   </g>
  </g>
  <g id="axis3d_3">
   <g id="line2d_23">
    <path d="M 519.629081 461.926708 
L 519.629081 235.279204 
" style="fill: none; stroke: #000000; stroke-width: 0.8; stroke-linecap: square"/>
   </g>
   <g id="text_13">
    <!-- Z -->
    <g transform="translate(554.972916 359.774608)scale(0.2 -0.2)">
     <defs>
      <path id="DejaVuSans-5a" d="M 359 4666 
L 4025 4666 
L 4025 4184 
L 1075 531 
L 4097 531 
L 4097 0 
L 288 0 
L 288 481 
L 3238 4134 
L 359 4134 
L 359 4666 
z
" transform="scale(0.015625)"/>
     </defs>
     <use xlink:href="#DejaVuSans-5a"/>
    </g>
   </g>
   <g id="Line3DCollection_3">
    <path d="M 519.629081 446.341424 
L 345.155751 295.243088 
L 42.959079 382.479753 
" style="fill: none; stroke: #b0b0b0; stroke-width: 0.8"/>
    <path d="M 519.629081 401.058423 
L 345.155751 249.960087 
L 42.959079 337.196752 
" style="fill: none; stroke: #b0b0b0; stroke-width: 0.8"/>
    <path d="M 519.629081 355.775422 
L 345.155751 204.677086 
L 42.959079 291.913751 
" style="fill: none; stroke: #b0b0b0; stroke-width: 0.8"/>
    <path d="M 519.629081 310.492421 
L 345.155751 159.394085 
L 42.959079 246.63075 
" style="fill: none; stroke: #b0b0b0; stroke-width: 0.8"/>
    <path d="M 519.629081 265.20942 
L 345.155751 114.111084 
L 42.959079 201.347749 
" style="fill: none; stroke: #b0b0b0; stroke-width: 0.8"/>
   </g>
   <g id="xtick_11">
    <g id="line2d_24">
     <path d="M 281.29408 316.67212 
" clip-path="url(#pfd03fb5464)" style="fill: none; stroke: #000000; stroke-opacity: 0.1; stroke-width: 0.5; stroke-linecap: square"/>
    </g>
    <g id="line2d_25">
     <path d="M 518.233294 445.132637 
L 522.420654 448.758997 
" style="fill: none; stroke: #000000; stroke-width: 0.8; stroke-linecap: square"/>
    </g>
    <g id="text_14">
     <!-- $0$ -->
     <g transform="translate(535.198245 458.059884)scale(0.12 -0.12)">
      <use xlink:href="#DejaVuSans-30" transform="translate(0 0.78125)"/>
     </g>
    </g>
   </g>
   <g id="xtick_12">
    <g id="line2d_26">
     <path d="M 281.29408 316.67212 
" clip-path="url(#pfd03fb5464)" style="fill: none; stroke: #000000; stroke-opacity: 0.1; stroke-width: 0.5; stroke-linecap: square"/>
    </g>
    <g id="line2d_27">
     <path d="M 518.233294 399.849636 
L 522.420654 403.475996 
" style="fill: none; stroke: #000000; stroke-width: 0.8; stroke-linecap: square"/>
    </g>
    <g id="text_15">
     <!-- $1$ -->
     <g transform="translate(535.198245 412.776883)scale(0.12 -0.12)">
      <use xlink:href="#DejaVuSans-31" transform="translate(0 0.09375)"/>
     </g>
    </g>
   </g>
   <g id="xtick_13">
    <g id="line2d_28">
     <path d="M 281.29408 316.67212 
" clip-path="url(#pfd03fb5464)" style="fill: none; stroke: #000000; stroke-opacity: 0.1; stroke-width: 0.5; stroke-linecap: square"/>
    </g>
    <g id="line2d_29">
     <path d="M 518.233294 354.566635 
L 522.420654 358.192995 
" style="fill: none; stroke: #000000; stroke-width: 0.8; stroke-linecap: square"/>
    </g>
    <g id="text_16">
     <!-- $2$ -->
     <g transform="translate(535.198245 367.493882)scale(0.12 -0.12)">
      <defs>
       <path id="DejaVuSans-32" d="M 1228 531 
L 3431 531 
L 3431 0 
L 469 0 
L 469 531 
Q 828 903 1448 1529 
Q 2069 2156 2228 2338 
Q 2531 2678 2651 2914 
Q 2772 3150 2772 3378 
Q 2772 3750 2511 3984 
Q 2250 4219 1831 4219 
Q 1534 4219 1204 4116 
Q 875 4013 500 3803 
L 500 4441 
Q 881 4594 1212 4672 
Q 1544 4750 1819 4750 
Q 2544 4750 2975 4387 
Q 3406 4025 3406 3419 
Q 3406 3131 3298 2873 
Q 3191 2616 2906 2266 
Q 2828 2175 2409 1742 
Q 1991 1309 1228 531 
z
" transform="scale(0.015625)"/>
      </defs>
      <use xlink:href="#DejaVuSans-32" transform="translate(0 0.78125)"/>
     </g>
    </g>
   </g>
   <g id="xtick_14">
    <g id="line2d_30">
     <path d="M 281.29408 316.67212 
" clip-path="url(#pfd03fb5464)" style="fill: none; stroke: #000000; stroke-opacity: 0.1; stroke-width: 0.5; stroke-linecap: square"/>
    </g>
    <g id="line2d_31">
     <path d="M 518.233294 309.283634 
L 522.420654 312.909994 
" style="fill: none; stroke: #000000; stroke-width: 0.8; stroke-linecap: square"/>
    </g>
    <g id="text_17">
     <!-- $3$ -->
     <g transform="translate(535.198245 322.210881)scale(0.12 -0.12)">
      <defs>
       <path id="DejaVuSans-33" d="M 2597 2516 
Q 3050 2419 3304 2112 
Q 3559 1806 3559 1356 
Q 3559 666 3084 287 
Q 2609 -91 1734 -91 
Q 1441 -91 1130 -33 
Q 819 25 488 141 
L 488 750 
Q 750 597 1062 519 
Q 1375 441 1716 441 
Q 2309 441 2620 675 
Q 2931 909 2931 1356 
Q 2931 1769 2642 2001 
Q 2353 2234 1838 2234 
L 1294 2234 
L 1294 2753 
L 1863 2753 
Q 2328 2753 2575 2939 
Q 2822 3125 2822 3475 
Q 2822 3834 2567 4026 
Q 2313 4219 1838 4219 
Q 1578 4219 1281 4162 
Q 984 4106 628 3988 
L 628 4550 
Q 988 4650 1302 4700 
Q 1616 4750 1894 4750 
Q 2613 4750 3031 4423 
Q 3450 4097 3450 3541 
Q 3450 3153 3228 2886 
Q 3006 2619 2597 2516 
z
" transform="scale(0.015625)"/>
      </defs>
      <use xlink:href="#DejaVuSans-33" transform="translate(0 0.78125)"/>
     </g>
    </g>
   </g>
   <g id="xtick_15">
    <g id="line2d_32">
     <path d="M 281.29408 316.67212 
" clip-path="url(#pfd03fb5464)" style="fill: none; stroke: #000000; stroke-opacity: 0.1; stroke-width: 0.5; stroke-linecap: square"/>
    </g>
    <g id="line2d_33">
     <path d="M 518.233294 264.000633 
L 522.420654 267.626994 
" style="fill: none; stroke: #000000; stroke-width: 0.8; stroke-linecap: square"/>
    </g>
    <g id="text_18">
     <!-- $4$ -->
     <g transform="translate(535.198245 276.92788)scale(0.12 -0.12)">
      <defs>
       <path id="DejaVuSans-34" d="M 2419 4116 
L 825 1625 
L 2419 1625 
L 2419 4116 
z
M 2253 4666 
L 3047 4666 
L 3047 1625 
L 3713 1625 
L 3713 1100 
L 3047 1100 
L 3047 0 
L 2419 0 
L 2419 1100 
L 313 1100 
L 313 1709 
L 2253 4666 
z
" transform="scale(0.015625)"/>
      </defs>
      <use xlink:href="#DejaVuSans-34" transform="translate(0 0.09375)"/>
     </g>
    </g>
   </g>
  </g>
  <g id="axes_1">
   <g id="line2d_34">
    <path d="M 418.137856 374.907193 
L 421.479299 377.490796 
L 424.549606 380.144912 
L 427.247913 382.765377 
L 429.683726 385.440287 
L 431.777142 388.062344 
L 433.619591 390.724592 
L 435.151641 393.317548 
L 436.446454 395.938261 
L 437.502033 398.582051 
L 438.288803 401.137426 
L 438.852476 403.70553 
L 439.192249 406.28215 
L 439.30764 408.863061 
L 439.198486 411.44403 
L 438.86494 414.020826 
L 438.307478 416.589223 
L 437.526891 419.145009 
L 436.524289 421.683986 
L 435.245367 424.306383 
L 433.729063 426.901334 
L 431.977716 429.464202 
L 429.909887 432.090616 
L 427.594207 434.672268 
L 424.931273 437.300453 
L 422.010013 439.86942 
L 418.713324 442.465189 
L 415.150849 444.985525 
L 411.188303 447.510197 
L 406.956262 449.941532 
L 402.304045 452.352057 
L 397.383155 454.649781 
L 392.027591 456.899005 
L 386.409511 459.014613 
L 380.542233 460.990374 
L 374.239055 462.876932 
L 367.701089 464.60209 
L 360.730388 466.206091 
L 353.546288 467.626618 
L 346.168091 468.858389 
L 338.615616 469.896629 
L 330.673437 470.759423 
L 322.590446 471.408201 
L 314.389693 471.839511 
L 306.094564 472.05052 
L 297.728712 472.039022 
L 289.315995 471.803448 
L 280.880402 471.342865 
L 272.445988 470.656984 
L 264.036807 469.746158 
L 255.676837 468.61138 
L 247.632385 467.297353 
L 239.678363 465.775954 
L 231.836137 464.049804 
L 224.126775 462.122075 
L 216.797497 460.063759 
L 209.631143 457.823247 
L 202.645815 455.404863 
L 196.068064 452.896931 
L 189.692359 450.231278 
L 183.533815 447.413006 
L 177.794454 444.54548 
L 172.284889 441.545405 
L 167.188912 438.524563 
L 162.329671 435.390329 
L 157.717249 432.148209 
L 153.507055 428.920893 
L 149.544018 425.603694 
L 145.963768 422.325004 
L 142.626906 418.972962 
L 139.539432 415.552793 
L 136.8072 412.1999 
L 134.315933 408.793667 
L 132.069787 405.339057 
L 130.144681 401.976391 
L 128.452638 398.578209 
L 126.996264 395.149113 
L 125.777806 391.693754 
L 124.833666 388.356254 
L 124.111865 385.003052 
L 123.613428 381.638347 
L 123.339063 378.266359 
L 123.289162 374.891313 
L 123.463794 371.517444 
L 123.862712 368.14898 
L 124.485348 364.790146 
L 125.330818 361.44515 
L 126.39792 358.118181 
L 127.685139 354.813405 
L 129.258079 351.398981 
L 131.065449 348.017749 
L 133.10446 344.674282 
L 135.371969 341.373101 
L 137.968806 337.989513 
L 140.804672 334.661402 
L 143.874835 331.393601 
L 147.305579 328.069021 
L 150.977296 324.81976 
L 155.032464 321.535098 
L 159.331839 318.342314 
L 163.867104 315.246687 
L 168.80366 312.148356 
L 173.973603 309.165141 
L 179.555995 306.205722 
L 185.364271 303.380521 
L 191.385536 300.694708 
L 197.81706 298.070967 
L 204.446484 295.606256 
L 211.480673 293.233751 
L 218.691216 291.040289 
L 226.059899 289.030072 
L 233.804782 287.152918 
L 241.677241 285.478195 
L 249.656126 284.008937 
L 257.720003 282.747625 
L 265.84721 281.696181 
L 274.263865 280.83381 
L 282.700568 280.196515 
L 291.133261 279.78451 
L 299.537896 279.597366 
L 307.890506 279.634015 
L 316.167272 279.892747 
L 324.344593 280.371224 
L 332.399149 281.066476 
L 340.307973 281.974918 
L 348.04851 283.092356 
L 355.379543 284.372263 
L 362.511554 285.83964 
L 369.425382 287.489079 
L 376.102455 289.314682 
L 382.334127 291.247184 
L 388.310563 293.33313 
L 393.842588 295.493985 
L 399.107793 297.786308 
L 403.937344 300.123599 
L 408.494596 302.571496 
L 412.769431 305.123463 
L 416.624391 307.682928 
L 420.080087 310.2345 
L 423.267353 312.859127 
L 426.080794 315.453618 
L 428.63384 318.105018 
L 430.841933 320.706804 
L 432.800621 323.351139 
L 434.506636 326.032897 
L 435.9061 328.64197 
L 437.067165 331.276185 
L 437.988038 333.930842 
L 438.644783 336.494154 
L 439.077925 339.067738 
L 439.286847 341.647375 
L 439.271253 344.228834 
L 439.031164 346.807883 
L 438.566922 349.380293 
L 437.879187 351.941844 
L 436.968936 354.488334 
L 435.78554 357.1204 
L 434.363929 359.726889 
L 432.706296 362.303144 
L 430.734735 364.945421 
L 428.513948 367.544888 
L 425.947931 370.193607 
L 423.121759 372.785145 
L 420.040514 375.314038 
L 416.581662 377.864705 
L 412.861145 380.336418 
L 408.739586 382.807118 
L 404.353612 385.180916 
L 399.54784 387.528297 
L 394.479516 389.75933 
L 388.978379 391.936072 
L 383.221954 393.975741 
L 377.026538 395.931016 
L 370.589294 397.727512 
L 363.926482 399.359353 
L 356.837022 400.863962 
L 349.544624 402.182153 
L 342.068878 403.308921 
L 334.429867 404.239771 
L 326.410292 404.98973 
L 318.262063 405.52377 
L 310.008414 405.838763 
L 301.672882 405.932208 
L 293.279237 405.802237 
L 284.851415 405.447615 
L 276.413449 404.867752 
L 267.9894 404.062698 
L 259.603292 403.033145 
L 251.522763 401.820439 
L 243.522211 400.399291 
L 235.62313 398.772052 
L 227.84674 396.941628 
L 220.21393 394.91147 
L 212.968925 392.755853 
L 205.896515 390.420279 
L 199.014566 387.909312 
L 192.545713 385.314278 
L 186.287256 382.564275 
L 180.444989 379.760425 
L 174.826632 376.821532 
L 169.44466 373.75302 
L 164.478019 370.668949 
L 159.75374 367.474497 
L 155.431534 364.290741 
L 151.352763 361.014597 
L 147.525315 357.651505 
L 144.079514 354.331426 
L 140.880488 350.940883 
L 138.038554 347.614258 
L 135.435532 344.232032 
L 133.075763 340.799128 
L 131.03982 337.455128 
L 129.235559 334.073422 
L 127.665761 330.658588 
L 126.332847 327.215252 
L 125.27802 323.887173 
L 124.444901 320.541298 
L 123.834674 317.181818 
L 123.448204 313.812943 
L 123.286043 310.438897 
L 123.348419 307.063911 
L 123.635245 303.692216 
L 124.146113 300.32804 
L 124.880296 296.9756 
L 125.836752 293.639095 
L 127.014122 290.322704 
L 128.473653 286.89399 
L 130.168823 283.496251 
L 132.097016 280.13409 
L 134.255261 276.812051 
L 136.740293 273.404515 
L 139.466401 270.050193 
L 142.42904 266.753962 
L 145.750677 263.397562 
L 149.316085 260.114196 
L 153.11885 256.908965 
L 157.305849 253.672855 
L 161.732657 250.531475 
L 166.561237 247.383291 
L 171.627856 244.347815 
L 176.922002 241.430352 
L 182.626441 238.541853 
L 188.549947 235.790368 
L 194.88707 233.096425 
L 201.429039 230.559298 
L 208.160345 228.183788 
L 215.290463 225.905847 
L 222.587313 223.80924 
L 230.03246 221.897925 
L 237.845685 220.124641 
L 245.77563 218.555419 
L 253.800992 217.19301 
L 261.900211 216.039607 
L 270.299121 215.071576 
L 278.729385 214.328297 
L 287.166963 213.810287 
L 295.587793 213.51742 
L 303.967863 213.448929 
L 312.283275 213.603404 
L 320.510318 213.978803 
L 328.62553 214.572452 
L 336.60577 215.381055 
L 344.428281 216.400703 
L 351.848752 217.587919 
L 359.079686 218.965046 
L 366.101657 220.526919 
L 372.895801 222.267876 
L 379.249226 224.121299 
L 385.355209 226.131324 
L 391.198324 228.291538 
L 396.594234 230.521059 
L 401.716801 232.878654 
L 406.402422 235.275733 
L 410.810271 237.779963 
L 414.797951 240.29631 
L 418.508646 242.900343 
L 421.821339 245.491786 
L 424.862233 248.153102 
L 427.531605 250.77989 
L 429.937974 253.460505 
L 432.002602 256.08746 
L 433.815889 258.754015 
L 435.319588 261.350548 
L 436.585791 263.974278 
L 437.612545 266.620521 
L 438.371483 269.177717 
L 438.907205 271.747116 
L 439.21895 274.324504 
L 439.306276 276.905653 
L 439.169057 279.486332 
L 438.80749 282.062309 
L 438.222087 284.62936 
L 437.413681 287.183274 
L 436.383421 289.719856 
L 435.075902 292.339206 
L 433.531262 294.930551 
L 431.751884 297.489259 
L 429.655273 300.110767 
L 427.311236 302.68693 
L 424.619354 305.308806 
L 421.669706 307.870857 
L 418.344226 310.458824 
L 414.753673 312.970733 
L 410.762858 315.486036 
L 406.503429 317.907366 
L 401.82387 320.306897 
L 396.876705 322.592996 
L 391.495171 324.82957 
L 385.852383 326.931912 
L 379.767726 328.954704 
L 373.434316 330.821412 
L 366.868152 332.525986 
L 359.870574 334.108046 
L 352.661909 335.505964 
L 345.261522 336.714521 
L 337.689292 337.729003 
L 329.729363 338.566818 
L 321.631315 339.190179 
L 313.418239 339.595706 
L 305.113557 339.78064 
L 296.74095 339.742849 
L 288.324294 339.480839 
L 279.887591 338.993753 
L 271.454899 338.281377 
L 263.050264 337.34414 
L 254.942353 336.220438 
L 246.905233 334.887465 
L 238.960495 333.347336 
L 231.129482 331.602722 
L 223.433231 329.656843 
L 216.118446 327.581275 
L 208.968301 325.323897 
L 202.000857 322.889075 
L 195.441985 320.365667 
L 189.086643 317.685015 
L 182.949897 314.852258 
L 177.232951 311.971235 
L 171.747047 308.958207 
L 166.675077 305.925386 
L 161.840911 302.779732 
L 157.254577 299.526775 
L 153.070483 296.28957 
L 149.13439 292.963064 
L 145.580873 289.67597 
L 142.271432 286.316098 
L 139.212019 282.888688 
L 136.507366 279.52939 
L 134.044178 276.117319 
L 131.826563 272.657451 
L 129.929276 269.290281 
L 128.265382 265.888146 
L 126.837447 262.455652 
L 125.690667 259.136219 
L 124.765008 255.797251 
L 124.061785 252.442929 
L 123.581998 249.077456 
L 123.326329 245.705051 
L 123.29514 242.329942 
L 123.488476 238.956361 
L 123.906063 235.588539 
L 124.547307 232.230697 
L 125.411297 228.887044 
L 126.496804 225.561766 
L 127.802287 222.259026 
L 129.394077 218.847088 
L 131.220085 215.468709 
L 133.277496 212.12846 
L 135.563138 208.830854 
L 138.178521 205.45136 
L 141.032583 202.127718 
L 144.120562 198.864754 
L 147.569373 195.545578 
L 151.258682 192.302097 
L 155.331559 189.023819 
L 159.648065 185.837802 
L 164.199849 182.749312 
L 169.152835 179.658749 
L 174.338483 176.683667 
L 179.936326 173.733028 
L 185.759208 170.916962 
L 191.794202 168.240619 
L 198.238959 165.62699 
L 202.287289 164.103546 
L 202.287289 164.103546 
" clip-path="url(#pfd03fb5464)" style="fill: none; stroke-dasharray: 3.7,1.6; stroke-dashoffset: 0; stroke: #0000ff"/>
   </g>
   <g id="Path3DCollection_1">
    <defs>
     <path id="C0_0_109e1ca1be" d="M 0 -6 
L -1.347084 -1.854102 
L -5.706339 -1.854102 
L -2.179628 0.708204 
L -3.526712 4.854102 
L -0 2.291796 
L 3.526712 4.854102 
L 2.179628 0.708204 
L 5.706339 -1.854102 
L 1.347084 -1.854102 
z
"/>
    </defs>
    <g clip-path="url(#pfd03fb5464)">
     <use xlink:href="#C0_0_109e1ca1be" x="303.606228" y="330.913408" style="fill: #ffa500; fill-opacity: 0.3; stroke: #000000; stroke-opacity: 0.3"/>
    </g>
    <g clip-path="url(#pfd03fb5464)">
     <use xlink:href="#C0_0_109e1ca1be" x="217.626693" y="368.126042" style="fill: #ffa500; fill-opacity: 0.409742; stroke: #000000; stroke-opacity: 0.409742"/>
    </g>
    <g clip-path="url(#pfd03fb5464)">
     <use xlink:href="#C0_0_109e1ca1be" x="303.606228" y="264.773352" style="fill: #ffa500; fill-opacity: 0.459532; stroke: #000000; stroke-opacity: 0.459532"/>
    </g>
    <g clip-path="url(#pfd03fb5464)">
     <use xlink:href="#C0_0_109e1ca1be" x="344.961467" y="423.508219" style="fill: #ffa500; fill-opacity: 0.491429; stroke: #000000; stroke-opacity: 0.491429"/>
    </g>
    <g clip-path="url(#pfd03fb5464)">
     <use xlink:href="#C0_0_109e1ca1be" x="217.626693" y="301.985986" style="fill: #ffa500; fill-opacity: 0.569274; stroke: #000000; stroke-opacity: 0.569274"/>
    </g>
    <g clip-path="url(#pfd03fb5464)">
     <use xlink:href="#C0_0_109e1ca1be" x="303.606228" y="198.633296" style="fill: #ffa500; fill-opacity: 0.619063; stroke: #000000; stroke-opacity: 0.619063"/>
    </g>
    <g clip-path="url(#pfd03fb5464)">
     <use xlink:href="#C0_0_109e1ca1be" x="344.961467" y="357.368162" style="fill: #ffa500; fill-opacity: 0.65096; stroke: #000000; stroke-opacity: 0.65096"/>
    </g>
    <g clip-path="url(#pfd03fb5464)">
     <use xlink:href="#C0_0_109e1ca1be" x="258.981931" y="427.650824" style="fill: #ffa500; fill-opacity: 0.680937; stroke: #000000; stroke-opacity: 0.680937"/>
    </g>
    <g clip-path="url(#pfd03fb5464)">
     <use xlink:href="#C0_0_109e1ca1be" x="217.626693" y="235.84593" style="fill: #ffa500; fill-opacity: 0.728805; stroke: #000000; stroke-opacity: 0.728805"/>
    </g>
    <g clip-path="url(#pfd03fb5464)">
     <use xlink:href="#C0_0_109e1ca1be" x="344.961467" y="291.228106" style="fill: #ffa500; fill-opacity: 0.810492; stroke: #000000; stroke-opacity: 0.810492"/>
    </g>
    <g clip-path="url(#pfd03fb5464)">
     <use xlink:href="#C0_0_109e1ca1be" x="258.981931" y="361.510768" style="fill: #ffa500; fill-opacity: 0.840468; stroke: #000000; stroke-opacity: 0.840468"/>
    </g>
    <g clip-path="url(#pfd03fb5464)">
     <use xlink:href="#C0_0_109e1ca1be" x="258.981931" y="295.370712" style="fill: #ffa500; stroke: #000000"/>
    </g>
   </g>
   <g id="Path3DCollection_2">
    <path d="M 280.810819 308.558077 
L 276.310819 317.558077 
L 285.310819 317.558077 
z
" clip-path="url(#pfd03fb5464)" style="fill: #008000; fill-opacity: 0.3; stroke: #000000; stroke-opacity: 0.3"/>
    <path d="M 347.816727 391.182812 
L 343.316727 400.182812 
L 352.316727 400.182812 
z
" clip-path="url(#pfd03fb5464)" style="fill: #008000; fill-opacity: 0.415865; stroke: #000000; stroke-opacity: 0.415865"/>
    <path d="M 280.810819 242.418021 
L 276.310819 251.418021 
L 285.310819 251.418021 
z
" clip-path="url(#pfd03fb5464)" style="fill: #008000; fill-opacity: 0.454958; stroke: #000000; stroke-opacity: 0.454958"/>
    <path d="M 214.771433 358.596045 
L 210.271433 367.596045 
L 219.271433 367.596045 
z
" clip-path="url(#pfd03fb5464)" style="fill: #008000; fill-opacity: 0.49674; stroke: #000000; stroke-opacity: 0.49674"/>
    <path d="M 347.816727 325.042756 
L 343.316727 334.042756 
L 352.316727 334.042756 
z
" clip-path="url(#pfd03fb5464)" style="fill: #008000; fill-opacity: 0.570823; stroke: #000000; stroke-opacity: 0.570823"/>
    <path d="M 280.810819 176.277965 
L 276.310819 185.277965 
L 285.310819 185.277965 
z
" clip-path="url(#pfd03fb5464)" style="fill: #008000; fill-opacity: 0.609916; stroke: #000000; stroke-opacity: 0.609916"/>
    <path d="M 214.771433 292.455989 
L 210.271433 301.455989 
L 219.271433 301.455989 
z
" clip-path="url(#pfd03fb5464)" style="fill: #008000; fill-opacity: 0.651698; stroke: #000000; stroke-opacity: 0.651698"/>
    <path d="M 281.777341 408.150752 
L 277.277341 417.150752 
L 286.277341 417.150752 
z
" clip-path="url(#pfd03fb5464)" style="fill: #008000; fill-opacity: 0.690084; stroke: #000000; stroke-opacity: 0.690084"/>
    <path d="M 347.816727 258.9027 
L 343.316727 267.9027 
L 352.316727 267.9027 
z
" clip-path="url(#pfd03fb5464)" style="fill: #008000; fill-opacity: 0.725781; stroke: #000000; stroke-opacity: 0.725781"/>
    <path d="M 214.771433 226.315933 
L 210.271433 235.315933 
L 219.271433 235.315933 
z
" clip-path="url(#pfd03fb5464)" style="fill: #008000; fill-opacity: 0.806656; stroke: #000000; stroke-opacity: 0.806656"/>
    <path d="M 281.777341 342.010696 
L 277.277341 351.010696 
L 286.277341 351.010696 
z
" clip-path="url(#pfd03fb5464)" style="fill: #008000; fill-opacity: 0.845042; stroke: #000000; stroke-opacity: 0.845042"/>
    <path d="M 281.777341 275.87064 
L 277.277341 284.87064 
L 286.277341 284.87064 
z
" clip-path="url(#pfd03fb5464)" style="fill: #008000; stroke: #000000"/>
   </g>
   <g id="line2d_35">
    <path d="M 402.290522 387.381516 
L 403.046882 389.588133 
L 403.567755 391.808797 
L 403.846059 393.958596 
L 403.903958 396.111961 
L 403.741346 398.264216 
L 403.358518 400.410686 
L 402.756161 402.546709 
L 401.900781 404.745843 
L 400.812132 406.923598 
L 399.492319 409.074866 
L 397.884403 411.26965 
L 395.966538 413.498604 
L 393.794072 415.679361 
L 391.286845 417.875865 
L 388.4253 420.07578 
L 385.293131 422.200359 
L 381.78802 424.305336 
L 377.894438 426.375329 
L 373.725386 428.337645 
L 369.15852 430.237613 
L 364.326144 432.008361 
L 359.094089 433.687417 
L 353.613315 435.214983 
L 347.739552 436.619988 
L 341.641409 437.850993 
L 335.166524 438.927621 
L 328.499752 439.808083 
L 321.66484 440.487006 
L 314.686133 440.959733 
L 307.588488 441.222342 
L 300.206909 441.270054 
L 292.754373 441.090506 
L 285.258842 440.681953 
L 277.940965 440.062753 
L 270.635031 439.225263 
L 263.367063 438.170228 
L 256.162949 436.899169 
L 249.048348 435.414374 
L 242.231124 433.766181 
L 235.545812 431.921743 
L 229.189275 429.942748 
L 222.999311 427.786334 
L 216.995709 425.457492 
L 211.355778 423.03329 
L 205.927187 420.456919 
L 200.87163 417.814171 
L 196.045409 415.039452 
L 191.59349 412.226109 
L 187.382543 409.300478 
L 183.540027 406.362309 
L 179.944447 403.330651 
L 176.705286 400.310544 
L 173.714073 397.214574 
L 171.062116 394.152012 
L 168.654901 391.029837 
L 166.565596 387.960549 
L 164.714321 384.846376 
L 163.15635 381.802126 
L 161.826873 378.726122 
L 160.72846 375.623417 
L 159.863238 372.499117 
L 159.251332 369.470765 
L 158.858916 366.431762 
L 158.686695 363.386772 
L 158.734979 360.340467 
L 159.003682 357.297524 
L 159.49232 354.262612 
L 160.200014 351.240386 
L 161.125492 348.235479 
L 162.313495 345.142492 
L 163.731622 342.078166 
L 165.37713 339.047532 
L 167.317714 335.949475 
L 169.494769 332.89832 
L 171.903776 329.899401 
L 174.634616 326.857603 
L 177.602267 323.882952 
L 180.910618 320.88553 
L 184.45695 317.971571 
L 188.358379 315.057193 
L 192.494573 312.243839 
L 196.994843 309.454483 
L 201.721574 306.784726 
L 206.814979 304.165185 
L 212.120771 301.684525 
L 217.788502 299.28174 
L 223.648135 297.037431 
L 229.856736 294.899631 
L 236.229778 292.939747 
L 242.929773 291.115404 
L 249.759322 289.487698 
L 256.69536 288.060061 
L 263.905104 286.80498 
L 271.176785 285.766064 
L 278.484502 284.944774 
L 285.802226 284.341798 
L 293.295588 283.949861 
L 300.743923 283.786832 
L 308.119288 283.850903 
L 315.394011 284.139414 
L 322.5408 284.648863 
L 329.355709 285.353638 
L 335.999429 286.25931 
L 342.448295 287.360415 
L 348.679338 288.650793 
L 354.515962 290.082575 
L 360.105321 291.680423 
L 365.288327 293.387384 
L 370.202811 295.237133 
L 374.708417 297.164973 
L 378.931743 299.212817 
L 382.751995 301.309537 
L 386.183301 303.438547 
L 389.332832 305.652858 
L 392.109824 307.874524 
L 394.533154 310.090047 
L 396.688027 312.361315 
L 398.512966 314.606177 
L 400.029725 316.814241 
L 401.30014 319.054052 
L 402.290522 321.24146 
L 403.046882 323.448077 
L 403.567755 325.66874 
L 403.846059 327.81854 
L 403.903958 329.971905 
L 403.741346 332.12416 
L 403.358518 334.27063 
L 402.756161 336.406653 
L 401.900781 338.605787 
L 400.812132 340.783542 
L 399.492319 342.93481 
L 397.884403 345.129593 
L 395.966538 347.358548 
L 393.794072 349.539305 
L 391.286845 351.735809 
L 388.4253 353.935723 
L 385.293131 356.060303 
L 381.78802 358.16528 
L 377.894438 360.235273 
L 373.725386 362.197589 
L 369.15852 364.097557 
L 364.326144 365.868305 
L 359.094089 367.547361 
L 353.613315 369.074927 
L 347.739552 370.479931 
L 341.641409 371.710937 
L 335.166524 372.787565 
L 328.499752 373.668027 
L 321.66484 374.34695 
L 314.686133 374.819676 
L 307.588488 375.082286 
L 300.206909 375.129997 
L 292.754373 374.95045 
L 285.258842 374.541897 
L 277.940965 373.922697 
L 270.635031 373.085206 
L 263.367063 372.030172 
L 256.162949 370.759112 
L 249.048348 369.274318 
L 242.231124 367.626125 
L 235.545812 365.781686 
L 229.189275 363.802692 
L 222.999311 361.646278 
L 216.995709 359.317436 
L 211.355778 356.893234 
L 205.927187 354.316863 
L 200.87163 351.674114 
L 196.045409 348.899396 
L 191.59349 346.086053 
L 187.382543 343.160422 
L 183.540027 340.222253 
L 179.944447 337.190595 
L 176.705286 334.170488 
L 173.714073 331.074518 
L 171.062116 328.011956 
L 168.654901 324.889781 
L 166.565596 321.820493 
L 164.714321 318.70632 
L 163.15635 315.66207 
L 161.826873 312.586066 
L 160.72846 309.483361 
L 159.863238 306.359061 
L 159.251332 303.330709 
L 158.858916 300.291706 
L 158.686695 297.246716 
L 158.734979 294.200411 
L 159.003682 291.157468 
L 159.49232 288.122555 
L 160.200014 285.10033 
L 161.125492 282.095423 
L 162.313495 279.002436 
L 163.731622 275.93811 
L 165.37713 272.907475 
L 167.317714 269.809419 
L 169.494769 266.758264 
L 171.903776 263.759345 
L 174.634616 260.717547 
L 177.602267 257.742896 
L 180.910618 254.745474 
L 184.45695 251.831515 
L 188.358379 248.917137 
L 192.494573 246.103783 
L 196.994843 243.314427 
L 201.721574 240.64467 
L 206.814979 238.025129 
L 212.120771 235.544469 
L 217.788502 233.141683 
L 223.648135 230.897375 
L 229.856736 228.759575 
L 236.229778 226.799691 
L 242.929773 224.975347 
L 249.759322 223.347642 
L 256.69536 221.920005 
L 263.905104 220.664924 
L 271.176785 219.626008 
L 278.484502 218.804718 
L 285.802226 218.201742 
L 293.295588 217.809805 
L 300.743923 217.646776 
L 308.119288 217.710847 
L 315.394011 217.999358 
L 322.5408 218.508807 
L 329.355709 219.213582 
L 335.999429 220.119254 
L 342.448295 221.220359 
L 348.679338 222.510736 
L 354.515962 223.942519 
L 360.105321 225.540367 
L 365.288327 227.247328 
L 370.202811 229.097077 
L 374.708417 231.024917 
L 378.931743 233.072761 
L 382.751995 235.169481 
L 386.183301 237.298491 
L 389.332832 239.512802 
L 392.109824 241.734467 
L 394.533154 243.949991 
L 396.688027 246.221259 
L 398.512966 248.466121 
L 400.029725 250.674185 
L 401.30014 252.913996 
L 402.290522 255.101404 
L 403.046882 257.308021 
L 403.567755 259.528684 
L 403.846059 261.678484 
L 403.903958 263.831849 
L 403.741346 265.984103 
L 403.358518 268.130574 
L 402.756161 270.266597 
L 401.900781 272.465731 
L 400.812132 274.643486 
L 399.492319 276.794754 
L 397.884403 278.989537 
L 395.966538 281.218492 
L 393.794072 283.399249 
L 391.286845 285.595753 
L 388.4253 287.795667 
L 385.293131 289.920247 
L 381.78802 292.025224 
L 377.894438 294.095217 
L 373.725386 296.057533 
L 369.15852 297.957501 
L 364.326144 299.728249 
L 359.094089 301.407304 
L 353.613315 302.93487 
L 347.739552 304.339875 
L 341.641409 305.570881 
L 335.166524 306.647509 
L 328.499752 307.527971 
L 321.66484 308.206894 
L 314.686133 308.67962 
L 307.588488 308.942229 
L 300.206909 308.989941 
L 292.754373 308.810394 
L 285.258842 308.401841 
L 277.940965 307.78264 
L 270.635031 306.94515 
L 263.367063 305.890116 
L 256.162949 304.619056 
L 249.048348 303.134261 
L 242.231124 301.486068 
L 235.545812 299.64163 
L 229.189275 297.662636 
L 222.999311 295.506222 
L 216.995709 293.17738 
L 211.355778 290.753178 
L 205.927187 288.176807 
L 200.87163 285.534058 
L 196.045409 282.759339 
L 191.59349 279.945996 
L 187.382543 277.020366 
L 183.540027 274.082197 
L 179.944447 271.050539 
L 176.705286 268.030431 
L 173.714073 264.934462 
L 171.062116 261.8719 
L 168.654901 258.749725 
L 166.565596 255.680436 
L 164.714321 252.566264 
L 163.15635 249.522014 
L 161.826873 246.446009 
L 160.72846 243.343305 
L 159.863238 240.219005 
L 159.251332 237.190653 
L 158.858916 234.15165 
L 158.686695 231.106659 
L 158.734979 228.060355 
L 159.003682 225.017411 
L 159.49232 221.982499 
L 160.200014 218.960274 
L 161.125492 215.955367 
L 162.313495 212.86238 
L 163.731622 209.798054 
L 165.37713 206.767419 
L 167.317714 203.669363 
L 169.494769 200.618208 
L 171.903776 197.619289 
L 174.634616 194.577491 
L 177.602267 191.602839 
L 180.910618 188.605418 
L 184.45695 185.691459 
L 188.358379 182.777081 
L 192.494573 179.963727 
L 196.994843 177.174371 
L 201.721574 174.504614 
L 206.814979 171.885073 
L 212.120771 169.404413 
L 217.788502 167.001627 
L 223.648135 164.757319 
L 229.856736 162.619519 
L 236.229778 160.659635 
L 242.929773 158.835291 
L 249.759322 157.207586 
L 256.69536 155.779949 
L 261.430344 154.930008 
L 261.430344 154.930008 
" clip-path="url(#pfd03fb5464)" style="fill: none; stroke-dasharray: 1,1.65; stroke-dashoffset: 0; stroke: #ff0000"/>
   </g>
   <g id="Path3DCollection_3">
    <defs>
     <path id="C1_0_4f8a425c6b" d="M -0 6.363961 
L 6.363961 -0 
L 0 -6.363961 
L -6.363961 -0 
z
"/>
    </defs>
    <g clip-path="url(#pfd03fb5464)">
     <use xlink:href="#C1_0_4f8a425c6b" x="302.441952" y="314.696203" style="fill: #800080; fill-opacity: 0.3; stroke: #000000; stroke-opacity: 0.3"/>
    </g>
    <g clip-path="url(#pfd03fb5464)">
     <use xlink:href="#C1_0_4f8a425c6b" x="302.441952" y="248.556147" style="fill: #800080; fill-opacity: 0.407862; stroke: #000000; stroke-opacity: 0.407862"/>
    </g>
    <g clip-path="url(#pfd03fb5464)">
     <use xlink:href="#C1_0_4f8a425c6b" x="171.286665" y="375.660988" style="fill: #800080; fill-opacity: 0.490405; stroke: #000000; stroke-opacity: 0.490405"/>
    </g>
    <g clip-path="url(#pfd03fb5464)">
     <use xlink:href="#C1_0_4f8a425c6b" x="302.441952" y="182.41609" style="fill: #800080; fill-opacity: 0.515725; stroke: #000000; stroke-opacity: 0.515725"/>
    </g>
    <g clip-path="url(#pfd03fb5464)">
     <use xlink:href="#C1_0_4f8a425c6b" x="391.301495" y="429.878888" style="fill: #800080; fill-opacity: 0.539939; stroke: #000000; stroke-opacity: 0.539939"/>
    </g>
    <g clip-path="url(#pfd03fb5464)">
     <use xlink:href="#C1_0_4f8a425c6b" x="171.286665" y="309.520932" style="fill: #800080; fill-opacity: 0.598267; stroke: #000000; stroke-opacity: 0.598267"/>
    </g>
    <g clip-path="url(#pfd03fb5464)">
     <use xlink:href="#C1_0_4f8a425c6b" x="391.301495" y="363.738832" style="fill: #800080; fill-opacity: 0.647801; stroke: #000000; stroke-opacity: 0.647801"/>
    </g>
    <g clip-path="url(#pfd03fb5464)">
     <use xlink:href="#C1_0_4f8a425c6b" x="171.286665" y="243.380876" style="fill: #800080; fill-opacity: 0.70613; stroke: #000000; stroke-opacity: 0.70613"/>
    </g>
    <g clip-path="url(#pfd03fb5464)">
     <use xlink:href="#C1_0_4f8a425c6b" x="391.301495" y="297.598776" style="fill: #800080; fill-opacity: 0.755664; stroke: #000000; stroke-opacity: 0.755664"/>
    </g>
    <g clip-path="url(#pfd03fb5464)">
     <use xlink:href="#C1_0_4f8a425c6b" x="260.146208" y="457.773646" style="fill: #800080; fill-opacity: 0.784275; stroke: #000000; stroke-opacity: 0.784275"/>
    </g>
    <g clip-path="url(#pfd03fb5464)">
     <use xlink:href="#C1_0_4f8a425c6b" x="260.146208" y="391.63359" style="fill: #800080; fill-opacity: 0.892138; stroke: #000000; stroke-opacity: 0.892138"/>
    </g>
    <g clip-path="url(#pfd03fb5464)">
     <use xlink:href="#C1_0_4f8a425c6b" x="260.146208" y="325.493533" style="fill: #800080; stroke: #000000"/>
    </g>
   </g>
   <g id="Path3DCollection_4">
    <defs>
     <path id="C2_0_e94f1a62fd" d="M -4.5 4.5 
L 4.5 4.5 
L 4.5 -4.5 
L -4.5 -4.5 
z
"/>
    </defs>
    <g clip-path="url(#pfd03fb5464)">
     <use xlink:href="#C2_0_e94f1a62fd" x="261.430344" y="287.21012" style="fill: #ff0000; fill-opacity: 0.3; stroke: #000000; stroke-opacity: 0.3"/>
    </g>
    <g clip-path="url(#pfd03fb5464)">
     <use xlink:href="#C2_0_e94f1a62fd" x="261.430344" y="221.070064" style="fill: #ff0000; fill-opacity: 0.400169; stroke: #000000; stroke-opacity: 0.400169"/>
    </g>
    <g clip-path="url(#pfd03fb5464)">
     <use xlink:href="#C2_0_e94f1a62fd" x="402.290522" y="387.381516" style="fill: #ff0000; fill-opacity: 0.454621; stroke: #000000; stroke-opacity: 0.454621"/>
    </g>
    <g clip-path="url(#pfd03fb5464)">
     <use xlink:href="#C2_0_e94f1a62fd" x="261.430344" y="154.930008" style="fill: #ff0000; fill-opacity: 0.500338; stroke: #000000; stroke-opacity: 0.500338"/>
    </g>
    <g clip-path="url(#pfd03fb5464)">
     <use xlink:href="#C2_0_e94f1a62fd" x="402.290522" y="321.24146" style="fill: #ff0000; fill-opacity: 0.55479; stroke: #000000; stroke-opacity: 0.55479"/>
    </g>
    <g clip-path="url(#pfd03fb5464)">
     <use xlink:href="#C2_0_e94f1a62fd" x="160.297638" y="374.175223" style="fill: #ff0000; fill-opacity: 0.594956; stroke: #000000; stroke-opacity: 0.594956"/>
    </g>
    <g clip-path="url(#pfd03fb5464)">
     <use xlink:href="#C2_0_e94f1a62fd" x="402.290522" y="255.101404" style="fill: #ff0000; fill-opacity: 0.654959; stroke: #000000; stroke-opacity: 0.654959"/>
    </g>
    <g clip-path="url(#pfd03fb5464)">
     <use xlink:href="#C2_0_e94f1a62fd" x="160.297638" y="308.035167" style="fill: #ff0000; fill-opacity: 0.695125; stroke: #000000; stroke-opacity: 0.695125"/>
    </g>
    <g clip-path="url(#pfd03fb5464)">
     <use xlink:href="#C2_0_e94f1a62fd" x="160.297638" y="241.895111" style="fill: #ff0000; fill-opacity: 0.795294; stroke: #000000; stroke-opacity: 0.795294"/>
    </g>
    <g clip-path="url(#pfd03fb5464)">
     <use xlink:href="#C2_0_e94f1a62fd" x="301.157815" y="441.276591" style="fill: #ff0000; fill-opacity: 0.799662; stroke: #000000; stroke-opacity: 0.799662"/>
    </g>
    <g clip-path="url(#pfd03fb5464)">
     <use xlink:href="#C2_0_e94f1a62fd" x="301.157815" y="375.136535" style="fill: #ff0000; fill-opacity: 0.899831; stroke: #000000; stroke-opacity: 0.899831"/>
    </g>
    <g clip-path="url(#pfd03fb5464)">
     <use xlink:href="#C2_0_e94f1a62fd" x="301.157815" y="308.996478" style="fill: #ff0000; stroke: #000000"/>
    </g>
   </g>
   <g id="line2d_36">
    <path d="M 391.301495 429.878888 
L 390.224359 431.893126 
L 388.872288 433.948229 
L 387.224262 436.035338 
L 385.325107 438.079257 
L 383.106055 440.13738 
L 380.548358 442.19794 
L 377.724025 444.188738 
L 374.543248 446.159701 
L 370.991258 448.09611 
L 367.055122 449.981992 
L 362.844816 451.752677 
L 358.24602 453.444553 
L 353.252594 455.039008 
L 348.002861 456.480564 
L 342.368084 457.793338 
L 336.504173 458.929951 
L 330.274937 459.905717 
L 323.852396 460.682683 
L 317.261897 461.255174 
L 310.529449 461.61832 
L 303.681623 461.768077 
L 296.745443 461.701244 
L 289.748284 461.415475 
L 282.71776 460.909287 
L 275.681617 460.182068 
L 268.667624 459.234077 
L 261.703462 458.066445 
L 254.987626 456.718434 
L 248.370484 455.166161 
L 241.876863 453.41303 
L 235.691793 451.515613 
L 229.669151 449.435972 
L 223.98151 447.240884 
L 218.487409 444.88328 
L 213.345214 442.439014 
L 208.420244 439.852389 
L 203.855298 437.207176 
L 199.524356 434.439663 
L 195.553644 431.640384 
L 191.827433 428.738313 
L 188.454703 425.829612 
L 185.422276 422.928577 
L 182.63203 419.954357 
L 180.166581 417.009119 
L 177.940875 414.006761 
L 176.020209 411.052425 
L 174.333277 408.055581 
L 172.883824 405.021781 
L 171.711454 402.059273 
L 170.766437 399.072649 
L 170.050735 396.067108 
L 169.565832 393.047892 
L 169.317596 390.124753 
L 169.285938 387.198536 
L 169.470918 384.274005 
L 169.872178 381.355921 
L 170.514942 378.345481 
L 171.387543 375.352303 
L 172.488169 372.381599 
L 173.814538 369.43854 
L 175.421264 366.428526 
L 177.263053 363.459146 
L 179.335817 360.535893 
L 181.715433 357.569378 
L 184.33112 354.663687 
L 187.272222 351.734075 
L 190.450832 348.881382 
L 193.969027 346.026314 
L 197.721813 343.265492 
L 201.823024 340.525867 
L 206.150858 337.898812 
L 210.829677 335.318283 
L 215.864174 332.80135 
L 221.107843 330.429759 
L 226.697505 328.149715 
L 232.471534 326.034831 
L 238.573046 324.04003 
L 244.826725 322.229654 
L 251.379831 320.567819 
L 258.045169 319.108491 
L 264.79773 317.854725 
L 271.787498 316.784737 
L 278.814784 315.935001 
L 285.851855 315.30626 
L 292.870938 314.898385 
L 299.844333 314.710376 
L 306.915849 314.743885 
L 313.88113 315.003474 
L 320.546538 315.470897 
L 327.057034 316.145355 
L 333.386925 317.021576 
L 339.511229 318.093491 
L 345.261402 319.320498 
L 350.771585 320.720015 
L 356.021107 322.284371 
L 360.866516 323.959268 
L 365.312216 325.725091 
L 369.474193 327.616017 
L 373.237986 329.567879 
L 376.615528 331.563665 
L 379.705027 333.648359 
L 382.421579 335.750993 
L 384.782518 337.857563 
L 386.806467 339.955378 
L 388.513044 342.033026 
L 389.965436 344.149138 
L 391.125712 346.227741 
L 392.042134 348.330815 
L 392.694295 350.381623 
L 393.115332 352.444654 
L 393.301719 354.443198 
L 393.271469 356.443458 
L 393.02464 358.440672 
L 392.541189 360.500926 
L 391.826931 362.547539 
L 390.883348 364.575268 
L 389.667992 366.647511 
L 388.212019 368.688277 
L 386.458171 370.758019 
L 384.386292 372.846476 
L 382.053994 374.879576 
L 379.382297 376.911385 
L 376.354119 378.928678 
L 372.953818 380.916963 
L 369.276539 382.807946 
L 365.216942 384.643588 
L 360.765136 386.406552 
L 356.044962 388.036212 
L 350.934618 389.563212 
L 345.576223 390.933945 
L 339.838915 392.170795 
L 333.881963 393.228489 
L 327.567522 394.12051 
L 321.070461 394.811222 
L 314.416421 395.295288 
L 307.631662 395.568189 
L 300.74296 395.626238 
L 293.777503 395.466594 
L 286.76278 395.087277 
L 279.726473 394.487175 
L 272.696354 393.666045 
L 265.700166 392.624518 
L 258.76552 391.364094 
L 252.089626 389.926676 
L 245.5233 388.286386 
L 239.091176 386.446959 
L 232.976081 384.467424 
L 227.033088 382.307897 
L 221.432023 380.037442 
L 216.033109 377.607113 
L 210.991485 375.094857 
L 206.174611 372.443193 
L 201.721644 369.737774 
L 197.626032 366.995516 
L 193.769011 364.147051 
L 190.26402 361.286969 
L 187.003571 358.339193 
L 184.08375 355.403096 
L 181.409489 352.396686 
L 179.05935 349.42308 
L 176.95158 346.395194 
L 175.14728 343.418916 
L 173.578652 340.402894 
L 172.289609 337.454886 
L 171.226721 334.48009 
L 170.392192 331.483681 
L 169.787755 328.470882 
L 169.423667 325.55135 
L 169.27595 322.626189 
L 169.344892 319.700163 
L 169.630357 316.778033 
L 170.131795 313.864558 
L 170.877783 310.861209 
L 171.852854 307.877463 
L 173.054986 304.918516 
L 174.481684 301.989511 
L 176.19074 298.996425 
L 178.133151 296.046365 
L 180.380876 293.048957 
L 182.867837 290.109199 
L 185.588137 287.232845 
L 188.634099 284.33615 
L 192.020312 281.432275 
L 195.646349 278.619292 
L 199.622806 275.822565 
L 203.832161 273.13516 
L 208.395926 270.489295 
L 213.179975 267.971942 
L 218.315295 265.522906 
L 223.651953 263.221953 
L 229.328707 261.017127 
L 235.180944 258.979862 
L 241.353251 257.067004 
L 247.667822 255.340538 
L 254.272899 253.76655 
L 260.979353 252.396496 
L 267.936714 251.206001 
L 274.94679 250.234979 
L 281.981917 249.484651 
L 289.014328 248.955368 
L 296.016271 248.646608 
L 303.132727 248.55753 
L 310.158634 248.696232 
L 317.06486 249.059328 
L 323.65993 249.625698 
L 330.087801 250.3967 
L 336.323105 251.36668 
L 342.341235 252.5292 
L 347.977131 253.841168 
L 353.362849 255.321989 
L 358.350559 256.91965 
L 363.063804 258.662118 
L 367.373294 260.489832 
L 371.287426 262.384402 
L 374.913859 264.385603 
L 378.152716 266.425561 
L 381.018854 268.488731 
L 383.528809 270.560869 
L 385.764121 272.694515 
L 387.663729 274.815443 
L 389.247781 276.912475 
L 390.537093 278.975687 
L 391.583858 281.066425 
L 392.362988 283.108238 
L 392.91168 285.165176 
L 393.228797 287.231976 
L 393.314622 289.23191 
L 393.183784 291.231348 
L 392.836538 293.225529 
L 392.249469 295.280318 
L 391.432199 297.319111 
L 390.386422 299.336684 
L 389.066436 301.395984 
L 387.507168 303.421356 
L 385.648228 305.472654 
L 383.469885 307.539412 
L 380.953205 309.609935 
L 378.168801 311.611746 
L 375.027912 313.595122 
L 371.515539 315.545401 
L 367.618498 317.446665 
L 363.445485 319.23381 
L 358.883017 320.943674 
L 353.92466 322.557669 
L 348.707602 324.019777 
L 343.103749 325.354618 
L 337.268002 326.514203 
L 331.222255 327.491764 
L 324.827112 328.298932 
L 318.260164 328.902424 
L 311.547327 329.29725 
L 304.715094 329.47924 
L 297.79043 329.445067 
L 290.800662 329.192254 
L 283.773376 328.719189 
L 276.736305 328.025129 
L 269.717221 327.110203 
L 262.743827 325.975411 
L 256.015034 324.659078 
L 249.381083 323.138027 
L 242.86686 321.415545 
L 236.658143 319.547331 
L 230.608413 317.496136 
L 224.891181 315.327919 
L 219.364416 312.996283 
L 214.187597 310.576331 
L 209.22531 308.013002 
L 204.621614 305.389393 
L 200.249608 302.642386 
L 196.236905 299.861917 
L 192.466755 296.977509 
L 189.049633 294.084806 
L 185.880316 291.10673 
L 183.051749 288.143543 
L 180.548164 285.208061 
L 178.283419 282.21452 
L 176.324197 279.267803 
L 174.598035 276.27766 
L 173.108765 273.24963 
L 171.897428 270.291803 
L 170.913059 267.308967 
L 170.157701 264.306314 
L 169.63292 261.289081 
L 169.346048 258.366992 
L 169.275699 255.440976 
L 169.422007 252.515794 
L 169.784691 249.59621 
L 170.38768 246.583325 
L 171.22077 243.586797 
L 172.282231 240.611848 
L 173.569862 237.663657 
L 175.080992 234.747343 
L 176.876079 231.769394 
L 178.903 228.836481 
L 181.236255 225.858862 
L 183.806718 222.940951 
L 186.702442 219.997586 
L 189.837113 217.130018 
L 193.311621 214.258473 
L 197.022485 211.480066 
L 201.082471 208.721211 
L 205.371192 206.073854 
L 210.012071 203.471365 
L 215.010122 200.930793 
L 220.220076 198.534572 
L 225.778044 196.228262 
L 231.523485 194.086235 
L 237.598969 192.062742 
L 243.830089 190.22295 
L 250.363735 188.530279 
L 257.013425 187.039578 
L 263.754209 185.75402 
L 270.735965 184.651112 
L 277.759389 183.768269 
L 284.796763 183.106366 
L 291.820313 182.665403 
L 298.802321 182.444512 
L 302.441952 182.41609 
L 302.441952 182.41609 
" clip-path="url(#pfd03fb5464)" style="fill: none; stroke-dasharray: 1,1.65; stroke-dashoffset: 0; stroke: #800080"/>
   </g>
   <g id="Path3DCollection_5">
    <defs>
     <path id="C3_0_70bdd5744b" d="M -1.722075 -4.157458 
L -4.157458 -1.722075 
L -4.157458 1.722075 
L -1.722075 4.157458 
L 1.722075 4.157458 
L 4.157458 1.722075 
L 4.157458 -1.722075 
L 1.722075 -4.157458 
z
"/>
    </defs>
    <g clip-path="url(#pfd03fb5464)">
     <use xlink:href="#C3_0_70bdd5744b" x="202.287289" y="296.383658" style="fill: #0000ff; fill-opacity: 0.3; stroke: #000000; stroke-opacity: 0.3"/>
    </g>
    <g clip-path="url(#pfd03fb5464)">
     <use xlink:href="#C3_0_70bdd5744b" x="418.137856" y="374.907193" style="fill: #0000ff; fill-opacity: 0.351017; stroke: #000000; stroke-opacity: 0.351017"/>
    </g>
    <g clip-path="url(#pfd03fb5464)">
     <use xlink:href="#C3_0_70bdd5744b" x="202.287289" y="230.243602" style="fill: #0000ff; fill-opacity: 0.390827; stroke: #000000; stroke-opacity: 0.390827"/>
    </g>
    <g clip-path="url(#pfd03fb5464)">
     <use xlink:href="#C3_0_70bdd5744b" x="418.137856" y="308.767136" style="fill: #0000ff; fill-opacity: 0.441843; stroke: #000000; stroke-opacity: 0.441843"/>
    </g>
    <g clip-path="url(#pfd03fb5464)">
     <use xlink:href="#C3_0_70bdd5744b" x="202.287289" y="164.103546" style="fill: #0000ff; fill-opacity: 0.481653; stroke: #000000; stroke-opacity: 0.481653"/>
    </g>
    <g clip-path="url(#pfd03fb5464)">
     <use xlink:href="#C3_0_70bdd5744b" x="418.137856" y="242.62708" style="fill: #0000ff; fill-opacity: 0.53267; stroke: #000000; stroke-opacity: 0.53267"/>
    </g>
    <g clip-path="url(#pfd03fb5464)">
     <use xlink:href="#C3_0_70bdd5744b" x="144.450304" y="420.843956" style="fill: #0000ff; fill-opacity: 0.721917; stroke: #000000; stroke-opacity: 0.721917"/>
    </g>
    <g clip-path="url(#pfd03fb5464)">
     <use xlink:href="#C3_0_70bdd5744b" x="144.450304" y="354.703899" style="fill: #0000ff; fill-opacity: 0.812744; stroke: #000000; stroke-opacity: 0.812744"/>
    </g>
    <g clip-path="url(#pfd03fb5464)">
     <use xlink:href="#C3_0_70bdd5744b" x="360.300871" y="466.297462" style="fill: #0000ff; fill-opacity: 0.818347; stroke: #000000; stroke-opacity: 0.818347"/>
    </g>
    <g clip-path="url(#pfd03fb5464)">
     <use xlink:href="#C3_0_70bdd5744b" x="144.450304" y="288.563843" style="fill: #0000ff; fill-opacity: 0.90357; stroke: #000000; stroke-opacity: 0.90357"/>
    </g>
    <g clip-path="url(#pfd03fb5464)">
     <use xlink:href="#C3_0_70bdd5744b" x="360.300871" y="400.157406" style="fill: #0000ff; fill-opacity: 0.909173; stroke: #000000; stroke-opacity: 0.909173"/>
    </g>
    <g clip-path="url(#pfd03fb5464)">
     <use xlink:href="#C3_0_70bdd5744b" x="360.300871" y="334.01735" style="fill: #0000ff; stroke: #000000"/>
    </g>
   </g>
   <g id="line2d_37">
    <path d="M 347.816727 395.682812 
L 347.732477 397.003466 
L 347.42387 398.318411 
L 346.891948 399.62114 
L 346.115091 400.939572 
L 345.077744 402.264937 
L 343.729262 403.619911 
L 342.079523 404.9585 
L 340.067699 406.297615 
L 337.719952 407.59013 
L 334.967184 408.845989 
L 331.854155 410.017989 
L 328.380073 411.087632 
L 324.547842 412.035611 
L 320.364409 412.841965 
L 315.84111 413.486274 
L 310.99398 413.947865 
L 305.94112 414.203289 
L 300.717532 414.244705 
L 295.359399 414.065755 
L 289.903837 413.66161 
L 284.388635 413.028997 
L 278.956427 412.184642 
L 273.539806 411.118625 
L 268.277353 409.859123 
L 263.098392 408.390391 
L 258.134074 406.751206 
L 253.407382 404.958251 
L 248.937079 403.028465 
L 244.737894 400.978821 
L 240.82075 398.826131 
L 237.114826 396.535677 
L 233.712433 394.169377 
L 230.615312 391.743342 
L 227.822282 389.272975 
L 225.329533 386.772876 
L 223.130929 384.256773 
L 221.218292 381.737469 
L 219.542747 379.161782 
L 218.143685 376.603415 
L 217.008348 374.072846 
L 216.101988 371.5118 
L 215.442578 368.995423 
L 215.005543 366.46311 
L 214.792359 363.921346 
L 214.803747 361.37665 
L 215.039667 358.835548 
L 215.499323 356.304555 
L 216.181163 353.790153 
L 217.110279 351.231811 
L 218.26801 348.704619 
L 219.650232 346.215341 
L 221.297088 343.706931 
L 223.219935 341.190263 
L 225.371975 338.737624 
L 227.80678 336.297516 
L 230.530832 333.882979 
L 233.548456 331.507914 
L 236.86154 329.187015 
L 240.469243 326.935689 
L 244.367716 324.769957 
L 248.549819 322.706326 
L 253.004856 320.761646 
L 257.620638 318.988028 
L 262.471139 317.359682 
L 267.535317 315.892862 
L 272.787951 314.603424 
L 278.199524 313.506582 
L 283.631733 312.631296 
L 289.152128 311.967267 
L 294.618091 311.532029 
L 300.09202 311.320717 
L 305.43078 311.338834 
L 310.595982 311.579829 
L 315.460866 312.025214 
L 320.08908 312.668293 
L 324.448563 313.498542 
L 328.435446 314.48362 
L 332.040478 315.601846 
L 335.25897 316.832154 
L 338.035937 318.126235 
L 340.442736 319.489036 
L 342.445308 320.871721 
L 344.108133 322.287 
L 345.415677 323.686884 
L 346.401651 325.056079 
L 347.115607 326.417054 
L 347.573743 327.760598 
L 347.79299 329.078601 
L 347.787675 330.399712 
L 347.557816 331.717406 
L 347.10419 333.025166 
L 346.406997 334.351124 
L 345.450326 335.686669 
L 344.219129 337.022114 
L 342.659201 338.37835 
L 340.785588 339.708912 
L 338.534456 341.028519 
L 335.937912 342.289882 
L 332.924661 343.500376 
L 329.546158 344.613078 
L 325.804335 345.608648 
L 321.705135 346.467047 
L 317.258863 347.167716 
L 312.572772 347.681794 
L 307.582152 348.004271 
L 302.409436 348.115095 
L 297.090455 348.007429 
L 291.662054 347.675948 
L 286.161835 347.116878 
L 280.627897 346.32802 
L 275.202624 345.330129 
L 269.817969 344.111373 
L 264.610975 342.703823 
L 259.609754 341.123342 
L 254.838068 339.38634 
L 250.223036 337.468627 
L 245.880401 335.421145 
L 241.82306 333.261235 
L 238.060124 331.005978 
L 234.597182 328.672031 
L 231.436584 326.275486 
L 228.577727 323.831753 
L 226.017355 321.355468 
L 223.749848 318.860412 
L 221.720935 316.296157 
L 219.97949 313.735231 
L 218.514514 311.189236 
L 217.313613 308.668759 
L 216.340602 306.115832 
L 215.598947 303.53731 
L 215.101634 301.008666 
L 214.827847 298.468815 
L 214.778512 295.924268 
L 214.953795 293.381551 
L 215.353103 290.847185 
L 215.975089 288.327663 
L 216.817652 285.829426 
L 217.909594 283.292516 
L 219.227302 280.791575 
L 220.809516 278.269216 
L 222.667966 275.736213 
L 224.757787 273.265251 
L 227.131335 270.804371 
L 229.795543 268.366558 
L 232.755214 265.965673 
L 236.012743 263.61639 
L 239.567823 261.334122 
L 243.331301 259.181239 
L 247.374231 257.121563 
L 251.687721 255.171391 
L 256.25929 253.347261 
L 261.072639 251.665783 
L 266.107443 250.143438 
L 271.339185 248.796357 
L 276.634781 247.660227 
L 282.064753 246.720955 
L 287.59362 245.991837 
L 293.078851 245.492089 
L 298.48245 245.219101 
L 303.865311 245.169848 
L 309.085871 245.345584 
L 314.106591 245.738624 
L 318.805115 246.326762 
L 323.243802 247.105183 
L 327.31651 248.042784 
L 331.012967 249.117998 
L 334.327493 250.309822 
L 337.258626 251.598009 
L 339.758955 252.93383 
L 341.897745 254.325029 
L 343.647732 255.722884 
L 345.040532 257.108983 
L 346.132681 258.502068 
L 346.939139 259.890974 
L 347.465347 261.230266 
L 347.751246 262.546086 
L 347.812725 263.866956 
L 347.649576 265.186347 
L 347.262349 266.49774 
L 346.632792 267.829428 
L 345.744699 269.172942 
L 344.582688 270.518725 
L 343.132458 271.856114 
L 341.336139 273.203971 
L 339.214671 274.515491 
L 336.701241 275.802942 
L 333.834625 277.019077 
L 330.541507 278.168459 
L 326.880732 279.204728 
L 322.857361 280.107785 
L 318.480792 280.856962 
L 313.856257 281.422231 
L 308.919566 281.799288 
L 303.791516 281.966746 
L 298.507627 281.917375 
L 293.104502 281.645445 
L 287.619567 281.146771 
L 282.090815 280.418737 
L 276.660781 279.480528 
L 271.261643 278.321061 
L 266.031092 276.970897 
L 260.997932 275.445585 
L 256.089904 273.724978 
L 251.430607 271.854613 
L 247.037675 269.851728 
L 242.92471 267.73353 
L 239.101521 265.517002 
L 235.574374 263.218742 
L 232.346276 260.854812 
L 229.417255 258.440628 
L 226.784651 255.990854 
L 224.389213 253.45812 
L 222.289552 250.913322 
L 220.47681 248.369145 
L 218.940428 245.837294 
L 217.63798 243.261952 
L 216.598609 240.717718 
L 215.789674 238.145894 
L 215.226197 235.621833 
L 214.885825 233.084635 
L 214.76971 230.540802 
L 214.878242 227.996859 
L 215.211055 225.459331 
L 215.767025 222.93472 
L 216.544274 220.429486 
L 217.5701 217.883428 
L 218.822903 215.371383 
L 220.340002 212.835635 
L 222.085786 210.349875 
L 224.10702 207.859539 
L 226.412936 205.376607 
L 229.010951 202.913996 
L 231.836446 200.54087 
L 234.95204 198.21157 
L 238.358742 195.940812 
L 242.054793 193.743986 
L 246.035389 191.637047 
L 250.292409 189.636387 
L 254.814155 187.75869 
L 259.585115 186.020754 
L 264.585745 184.439293 
L 269.792297 183.030723 
L 275.072624 181.832292 
L 280.497345 180.829078 
L 280.810819 180.777965 
L 280.810819 180.777965 
" clip-path="url(#pfd03fb5464)" style="fill: none; stroke: #008000"/>
   </g>
   <g id="line2d_38">
    <path d="M 344.961467 423.508219 
L 343.35202 424.888134 
L 341.424588 426.241194 
L 339.114017 427.582343 
L 336.453724 428.863502 
L 333.438391 430.06775 
L 329.99254 431.198936 
L 326.179271 432.210641 
L 322.004818 433.082558 
L 317.569234 433.781944 
L 312.807311 434.307156 
L 307.835253 434.633486 
L 302.585685 434.753252 
L 297.188631 434.651301 
L 291.681477 434.322269 
L 286.102371 433.762365 
L 280.595923 432.986521 
L 275.09413 431.98576 
L 269.738071 430.786674 
L 264.456136 429.37442 
L 259.382403 427.786431 
L 254.541014 426.039333 
L 249.95184 424.150063 
L 245.63067 422.135641 
L 241.589421 420.012977 
L 237.755381 417.747991 
L 234.224417 415.402066 
L 230.999106 412.991515 
L 228.079023 410.531968 
L 225.461042 408.038275 
L 223.139631 405.524431 
L 221.107144 403.003517 
L 219.312188 400.422461 
L 217.797572 397.85526 
L 216.550889 395.312695 
L 215.534813 392.736355 
L 214.770512 390.201966 
L 214.230856 387.648626 
L 213.917667 385.082891 
L 213.832003 382.511358 
L 213.974153 379.940647 
L 214.343638 377.377372 
L 214.939208 374.828122 
L 215.758854 372.299442 
L 216.799807 369.797803 
L 218.095557 367.263402 
L 219.659426 364.706086 
L 221.454533 362.200229 
L 223.528814 359.690888 
L 225.891468 357.190245 
L 228.483837 354.769408 
L 231.366379 352.379828 
L 234.542495 350.03567 
L 238.013057 347.751858 
L 241.776125 345.543994 
L 245.826664 343.428246 
L 250.156269 341.421218 
L 254.752907 339.539799 
L 259.600674 337.800983 
L 264.576895 336.251296 
L 269.756499 334.869479 
L 275.112755 333.671135 
L 280.614626 332.671137 
L 286.121027 331.896056 
L 291.699958 331.336925 
L 297.206808 331.008657 
L 302.603432 330.907454 
L 307.852448 331.027947 
L 312.917495 331.363232 
L 317.76349 331.904915 
L 322.272732 332.627491 
L 326.508722 333.528747 
L 330.370561 334.574901 
L 333.851234 335.744749 
L 336.948046 337.017788 
L 339.609031 338.345106 
L 341.905857 339.733742 
L 343.80698 341.13449 
L 345.376556 342.561995 
L 346.601042 343.968035 
L 347.534742 345.37366 
L 348.193423 346.768507 
L 348.593812 348.143365 
L 348.753336 349.490151 
L 348.685057 350.838263 
L 348.389203 352.181083 
L 347.866774 353.51201 
L 347.096241 354.859638 
L 346.061749 356.21511 
L 344.748355 357.568478 
L 343.099879 358.940717 
L 341.133627 360.284603 
L 338.783854 361.614771 
L 336.085193 362.883303 
L 332.964574 364.097328 
L 329.476238 365.209451 
L 325.62277 366.200081 
L 321.410851 367.048945 
L 316.851598 367.73528 
L 312.055242 368.230463 
L 306.955791 368.529118 
L 301.678584 368.611679 
L 296.260175 368.471502 
L 290.738096 368.103489 
L 285.256394 367.517583 
L 279.74827 366.707135 
L 274.250454 365.671818 
L 268.90376 364.439107 
L 263.73884 363.024074 
L 258.682155 361.408238 
L 253.86166 359.63458 
L 249.296857 357.720146 
L 245.003157 355.682043 
L 240.992105 353.537244 
L 237.271625 351.302412 
L 233.771012 348.939919 
L 230.577568 346.514245 
L 227.690573 344.041015 
L 225.106623 341.535065 
L 222.819921 339.010363 
L 220.822575 336.479954 
L 219.104883 333.955919 
L 217.620509 331.382829 
L 216.403933 328.835428 
L 215.418488 326.255158 
L 214.68441 323.717827 
L 214.175268 321.162428 
L 213.892781 318.595523 
L 213.837903 316.023714 
L 214.010819 313.453622 
L 214.410945 310.891857 
L 215.03693 308.345007 
L 215.886661 305.819604 
L 216.989236 303.255059 
L 218.320856 300.726849 
L 219.920704 298.176987 
L 221.75081 295.679671 
L 223.859831 293.180187 
L 226.256737 290.690758 
L 228.94863 288.224542 
L 231.868275 285.850912 
L 235.080113 283.524313 
L 238.584689 281.259675 
L 242.379719 279.072588 
L 246.459814 276.979191 
L 250.816203 274.99604 
L 255.436483 273.139958 
L 260.304378 271.427849 
L 265.399528 269.876505 
L 270.592674 268.527276 
L 275.95743 267.362613 
L 281.46239 266.397195 
L 286.966226 265.656704 
L 292.536744 265.132601 
L 298.029385 264.838889 
L 303.406102 264.771532 
L 308.62965 264.924926 
L 313.663847 265.291939 
L 318.47382 265.863957 
L 322.942937 266.61474 
L 327.134334 267.542471 
L 330.948382 268.612741 
L 334.378601 269.8043 
L 337.422812 271.096632 
L 340.030698 272.440503 
L 342.273328 273.8434 
L 344.120813 275.255925 
L 345.604578 276.659136 
L 346.783162 278.071782 
L 347.671351 279.482415 
L 348.272531 280.844685 
L 348.62867 282.184989 
L 348.757424 283.532341 
L 348.658361 284.880125 
L 348.331813 286.221722 
L 347.778885 287.550538 
L 346.977337 288.89508 
L 345.911457 290.246427 
L 344.529608 291.62772 
L 342.842248 292.992099 
L 340.83735 294.326628 
L 338.448583 295.645631 
L 335.711794 296.901356 
L 332.55347 298.100586 
L 329.029054 299.196186 
L 325.141502 300.168577 
L 320.897874 300.997517 
L 316.309679 301.662299 
L 311.487995 302.13482 
L 306.366623 302.409393 
L 301.071575 302.467043 
L 295.63953 302.3013 
L 290.108115 301.907243 
L 284.621493 301.295492 
L 279.112684 300.459087 
L 273.61842 299.39787 
L 268.279303 298.139981 
L 263.125702 296.700636 
L 258.084114 295.061005 
L 253.281994 293.264675 
L 248.738519 291.32878 
L 244.468778 289.2705 
L 240.483995 287.106861 
L 236.79178 284.854563 
L 233.396397 282.529829 
L 230.229725 280.091666 
L 227.370501 277.607154 
L 224.815085 275.091113 
L 222.557462 272.557488 
L 220.589535 270.019293 
L 218.901414 267.488571 
L 217.447374 264.909711 
L 216.26098 262.357592 
L 215.306226 259.773512 
L 214.602417 257.233358 
L 214.12382 254.676019 
L 213.872052 252.108065 
L 213.847963 249.536102 
L 214.051634 246.966748 
L 214.482378 244.406616 
L 215.13874 241.862283 
L 216.018502 239.340276 
L 217.151457 236.78012 
L 218.512879 234.257198 
L 220.142601 231.713677 
L 222.001748 229.223606 
L 224.139576 226.73246 
L 226.564863 224.2525 
L 229.284504 221.796909 
L 232.30323 219.379755 
L 235.545378 217.068364 
L 239.078772 214.820309 
L 242.900834 212.651169 
L 247.005869 210.577057 
L 251.384797 208.614489 
L 256.024897 206.780226 
L 260.909576 205.091097 
L 266.018158 203.563795 
L 271.220921 202.23906 
L 276.591497 201.099693 
L 282.098202 200.16022 
L 287.599545 199.44566 
L 293.163176 198.947791 
L 298.644591 198.679936 
L 303.606228 198.633296 
L 303.606228 198.633296 
" clip-path="url(#pfd03fb5464)" style="fill: none; stroke: #ffa500"/>
   </g>
   <g id="legend_1">
    <g id="patch_6">
     <path d="M 406.996504 160.137196 
L 539.097754 160.137196 
L 539.097754 58.868446 
L 406.996504 58.868446 
L 406.996504 160.137196 
z
" style="fill: none; opacity: 0"/>
    </g>
    <g id="Path3DCollection_6">
     <defs>
      <path id="m6d7bf7b06a" d="M -1.722075 -4.157458 
L -4.157458 -1.722075 
L -4.157458 1.722075 
L -1.722075 4.157458 
L 1.722075 4.157458 
L 4.157458 1.722075 
L 4.157458 -1.722075 
L 1.722075 -4.157458 
z
" style="stroke: #000000"/>
     </defs>
     <g>
      <use xlink:href="#m6d7bf7b06a" x="428.596504" y="74.436571" style="fill: #0000ff; stroke: #000000"/>
     </g>
    </g>
    <g id="text_19">
     <!-- Pitches -->
     <g transform="translate(450.196504 77.586571)scale(0.12 -0.12)">
      <defs>
       <path id="DejaVuSans-50" d="M 1259 4147 
L 1259 2394 
L 2053 2394 
Q 2494 2394 2734 2622 
Q 2975 2850 2975 3272 
Q 2975 3691 2734 3919 
Q 2494 4147 2053 4147 
L 1259 4147 
z
M 628 4666 
L 2053 4666 
Q 2838 4666 3239 4311 
Q 3641 3956 3641 3272 
Q 3641 2581 3239 2228 
Q 2838 1875 2053 1875 
L 1259 1875 
L 1259 0 
L 628 0 
L 628 4666 
z
" transform="scale(0.015625)"/>
       <path id="DejaVuSans-69" d="M 603 3500 
L 1178 3500 
L 1178 0 
L 603 0 
L 603 3500 
z
M 603 4863 
L 1178 4863 
L 1178 4134 
L 603 4134 
L 603 4863 
z
" transform="scale(0.015625)"/>
       <path id="DejaVuSans-74" d="M 1172 4494 
L 1172 3500 
L 2356 3500 
L 2356 3053 
L 1172 3053 
L 1172 1153 
Q 1172 725 1289 603 
Q 1406 481 1766 481 
L 2356 481 
L 2356 0 
L 1766 0 
Q 1100 0 847 248 
Q 594 497 594 1153 
L 594 3053 
L 172 3053 
L 172 3500 
L 594 3500 
L 594 4494 
L 1172 4494 
z
" transform="scale(0.015625)"/>
       <path id="DejaVuSans-63" d="M 3122 3366 
L 3122 2828 
Q 2878 2963 2633 3030 
Q 2388 3097 2138 3097 
Q 1578 3097 1268 2742 
Q 959 2388 959 1747 
Q 959 1106 1268 751 
Q 1578 397 2138 397 
Q 2388 397 2633 464 
Q 2878 531 3122 666 
L 3122 134 
Q 2881 22 2623 -34 
Q 2366 -91 2075 -91 
Q 1284 -91 818 406 
Q 353 903 353 1747 
Q 353 2603 823 3093 
Q 1294 3584 2113 3584 
Q 2378 3584 2631 3529 
Q 2884 3475 3122 3366 
z
" transform="scale(0.015625)"/>
       <path id="DejaVuSans-68" d="M 3513 2113 
L 3513 0 
L 2938 0 
L 2938 2094 
Q 2938 2591 2744 2837 
Q 2550 3084 2163 3084 
Q 1697 3084 1428 2787 
Q 1159 2491 1159 1978 
L 1159 0 
L 581 0 
L 581 4863 
L 1159 4863 
L 1159 2956 
Q 1366 3272 1645 3428 
Q 1925 3584 2291 3584 
Q 2894 3584 3203 3211 
Q 3513 2838 3513 2113 
z
" transform="scale(0.015625)"/>
       <path id="DejaVuSans-65" d="M 3597 1894 
L 3597 1613 
L 953 1613 
Q 991 1019 1311 708 
Q 1631 397 2203 397 
Q 2534 397 2845 478 
Q 3156 559 3463 722 
L 3463 178 
Q 3153 47 2828 -22 
Q 2503 -91 2169 -91 
Q 1331 -91 842 396 
Q 353 884 353 1716 
Q 353 2575 817 3079 
Q 1281 3584 2069 3584 
Q 2775 3584 3186 3129 
Q 3597 2675 3597 1894 
z
M 3022 2063 
Q 3016 2534 2758 2815 
Q 2500 3097 2075 3097 
Q 1594 3097 1305 2825 
Q 1016 2553 972 2059 
L 3022 2063 
z
" transform="scale(0.015625)"/>
       <path id="DejaVuSans-73" d="M 2834 3397 
L 2834 2853 
Q 2591 2978 2328 3040 
Q 2066 3103 1784 3103 
Q 1356 3103 1142 2972 
Q 928 2841 928 2578 
Q 928 2378 1081 2264 
Q 1234 2150 1697 2047 
L 1894 2003 
Q 2506 1872 2764 1633 
Q 3022 1394 3022 966 
Q 3022 478 2636 193 
Q 2250 -91 1575 -91 
Q 1294 -91 989 -36 
Q 684 19 347 128 
L 347 722 
Q 666 556 975 473 
Q 1284 391 1588 391 
Q 1994 391 2212 530 
Q 2431 669 2431 922 
Q 2431 1156 2273 1281 
Q 2116 1406 1581 1522 
L 1381 1569 
Q 847 1681 609 1914 
Q 372 2147 372 2553 
Q 372 3047 722 3315 
Q 1072 3584 1716 3584 
Q 2034 3584 2315 3537 
Q 2597 3491 2834 3397 
z
" transform="scale(0.015625)"/>
      </defs>
      <use xlink:href="#DejaVuSans-50"/>
      <use xlink:href="#DejaVuSans-69" x="58.052734"/>
      <use xlink:href="#DejaVuSans-74" x="85.835938"/>
      <use xlink:href="#DejaVuSans-63" x="125.044922"/>
      <use xlink:href="#DejaVuSans-68" x="180.025391"/>
      <use xlink:href="#DejaVuSans-65" x="243.404297"/>
      <use xlink:href="#DejaVuSans-73" x="304.927734"/>
     </g>
    </g>
    <g id="Path3DCollection_7">
     <defs>
      <path id="m1131d70862" d="M -4.5 4.5 
L 4.5 4.5 
L 4.5 -4.5 
L -4.5 -4.5 
z
" style="stroke: #000000"/>
     </defs>
     <g>
      <use xlink:href="#m1131d70862" x="428.596504" y="92.050321" style="fill: #ff0000; stroke: #000000"/>
     </g>
    </g>
    <g id="text_20">
     <!-- Major Chords -->
     <g transform="translate(450.196504 95.200321)scale(0.12 -0.12)">
      <defs>
       <path id="DejaVuSans-4d" d="M 628 4666 
L 1569 4666 
L 2759 1491 
L 3956 4666 
L 4897 4666 
L 4897 0 
L 4281 0 
L 4281 4097 
L 3078 897 
L 2444 897 
L 1241 4097 
L 1241 0 
L 628 0 
L 628 4666 
z
" transform="scale(0.015625)"/>
       <path id="DejaVuSans-61" d="M 2194 1759 
Q 1497 1759 1228 1600 
Q 959 1441 959 1056 
Q 959 750 1161 570 
Q 1363 391 1709 391 
Q 2188 391 2477 730 
Q 2766 1069 2766 1631 
L 2766 1759 
L 2194 1759 
z
M 3341 1997 
L 3341 0 
L 2766 0 
L 2766 531 
Q 2569 213 2275 61 
Q 1981 -91 1556 -91 
Q 1019 -91 701 211 
Q 384 513 384 1019 
Q 384 1609 779 1909 
Q 1175 2209 1959 2209 
L 2766 2209 
L 2766 2266 
Q 2766 2663 2505 2880 
Q 2244 3097 1772 3097 
Q 1472 3097 1187 3025 
Q 903 2953 641 2809 
L 641 3341 
Q 956 3463 1253 3523 
Q 1550 3584 1831 3584 
Q 2591 3584 2966 3190 
Q 3341 2797 3341 1997 
z
" transform="scale(0.015625)"/>
       <path id="DejaVuSans-6a" d="M 603 3500 
L 1178 3500 
L 1178 -63 
Q 1178 -731 923 -1031 
Q 669 -1331 103 -1331 
L -116 -1331 
L -116 -844 
L 38 -844 
Q 366 -844 484 -692 
Q 603 -541 603 -63 
L 603 3500 
z
M 603 4863 
L 1178 4863 
L 1178 4134 
L 603 4134 
L 603 4863 
z
" transform="scale(0.015625)"/>
       <path id="DejaVuSans-6f" d="M 1959 3097 
Q 1497 3097 1228 2736 
Q 959 2375 959 1747 
Q 959 1119 1226 758 
Q 1494 397 1959 397 
Q 2419 397 2687 759 
Q 2956 1122 2956 1747 
Q 2956 2369 2687 2733 
Q 2419 3097 1959 3097 
z
M 1959 3584 
Q 2709 3584 3137 3096 
Q 3566 2609 3566 1747 
Q 3566 888 3137 398 
Q 2709 -91 1959 -91 
Q 1206 -91 779 398 
Q 353 888 353 1747 
Q 353 2609 779 3096 
Q 1206 3584 1959 3584 
z
" transform="scale(0.015625)"/>
       <path id="DejaVuSans-72" d="M 2631 2963 
Q 2534 3019 2420 3045 
Q 2306 3072 2169 3072 
Q 1681 3072 1420 2755 
Q 1159 2438 1159 1844 
L 1159 0 
L 581 0 
L 581 3500 
L 1159 3500 
L 1159 2956 
Q 1341 3275 1631 3429 
Q 1922 3584 2338 3584 
Q 2397 3584 2469 3576 
Q 2541 3569 2628 3553 
L 2631 2963 
z
" transform="scale(0.015625)"/>
       <path id="DejaVuSans-20" transform="scale(0.015625)"/>
       <path id="DejaVuSans-43" d="M 4122 4306 
L 4122 3641 
Q 3803 3938 3442 4084 
Q 3081 4231 2675 4231 
Q 1875 4231 1450 3742 
Q 1025 3253 1025 2328 
Q 1025 1406 1450 917 
Q 1875 428 2675 428 
Q 3081 428 3442 575 
Q 3803 722 4122 1019 
L 4122 359 
Q 3791 134 3420 21 
Q 3050 -91 2638 -91 
Q 1578 -91 968 557 
Q 359 1206 359 2328 
Q 359 3453 968 4101 
Q 1578 4750 2638 4750 
Q 3056 4750 3426 4639 
Q 3797 4528 4122 4306 
z
" transform="scale(0.015625)"/>
       <path id="DejaVuSans-64" d="M 2906 2969 
L 2906 4863 
L 3481 4863 
L 3481 0 
L 2906 0 
L 2906 525 
Q 2725 213 2448 61 
Q 2172 -91 1784 -91 
Q 1150 -91 751 415 
Q 353 922 353 1747 
Q 353 2572 751 3078 
Q 1150 3584 1784 3584 
Q 2172 3584 2448 3432 
Q 2725 3281 2906 2969 
z
M 947 1747 
Q 947 1113 1208 752 
Q 1469 391 1925 391 
Q 2381 391 2643 752 
Q 2906 1113 2906 1747 
Q 2906 2381 2643 2742 
Q 2381 3103 1925 3103 
Q 1469 3103 1208 2742 
Q 947 2381 947 1747 
z
" transform="scale(0.015625)"/>
      </defs>
      <use xlink:href="#DejaVuSans-4d"/>
      <use xlink:href="#DejaVuSans-61" x="86.279297"/>
      <use xlink:href="#DejaVuSans-6a" x="147.558594"/>
      <use xlink:href="#DejaVuSans-6f" x="175.341797"/>
      <use xlink:href="#DejaVuSans-72" x="236.523438"/>
      <use xlink:href="#DejaVuSans-20" x="277.636719"/>
      <use xlink:href="#DejaVuSans-43" x="309.423828"/>
      <use xlink:href="#DejaVuSans-68" x="379.248047"/>
      <use xlink:href="#DejaVuSans-6f" x="442.626953"/>
      <use xlink:href="#DejaVuSans-72" x="503.808594"/>
      <use xlink:href="#DejaVuSans-64" x="543.171875"/>
      <use xlink:href="#DejaVuSans-73" x="606.648438"/>
     </g>
    </g>
    <g id="Path3DCollection_8">
     <defs>
      <path id="mbb354b550b" d="M -0 6.363961 
L 6.363961 0 
L 0 -6.363961 
L -6.363961 -0 
z
" style="stroke: #000000"/>
     </defs>
     <g>
      <use xlink:href="#mbb354b550b" x="428.596504" y="109.664071" style="fill: #800080; stroke: #000000"/>
     </g>
    </g>
    <g id="text_21">
     <!-- Minor Chords -->
     <g transform="translate(450.196504 112.814071)scale(0.12 -0.12)">
      <defs>
       <path id="DejaVuSans-6e" d="M 3513 2113 
L 3513 0 
L 2938 0 
L 2938 2094 
Q 2938 2591 2744 2837 
Q 2550 3084 2163 3084 
Q 1697 3084 1428 2787 
Q 1159 2491 1159 1978 
L 1159 0 
L 581 0 
L 581 3500 
L 1159 3500 
L 1159 2956 
Q 1366 3272 1645 3428 
Q 1925 3584 2291 3584 
Q 2894 3584 3203 3211 
Q 3513 2838 3513 2113 
z
" transform="scale(0.015625)"/>
      </defs>
      <use xlink:href="#DejaVuSans-4d"/>
      <use xlink:href="#DejaVuSans-69" x="86.279297"/>
      <use xlink:href="#DejaVuSans-6e" x="114.0625"/>
      <use xlink:href="#DejaVuSans-6f" x="177.441406"/>
      <use xlink:href="#DejaVuSans-72" x="238.623047"/>
      <use xlink:href="#DejaVuSans-20" x="279.736328"/>
      <use xlink:href="#DejaVuSans-43" x="311.523438"/>
      <use xlink:href="#DejaVuSans-68" x="381.347656"/>
      <use xlink:href="#DejaVuSans-6f" x="444.726562"/>
      <use xlink:href="#DejaVuSans-72" x="505.908203"/>
      <use xlink:href="#DejaVuSans-64" x="545.271484"/>
      <use xlink:href="#DejaVuSans-73" x="608.748047"/>
     </g>
    </g>
    <g id="Path3DCollection_9">
     <defs>
      <path id="m5ea9a470bb" d="M 0 -4.5 
L -4.5 4.5 
L 4.5 4.5 
z
" style="stroke: #000000"/>
     </defs>
     <g>
      <use xlink:href="#m5ea9a470bb" x="428.596504" y="127.277821" style="fill: #008000; stroke: #000000"/>
     </g>
    </g>
    <g id="text_22">
     <!-- Major Keys -->
     <g transform="translate(450.196504 130.427821)scale(0.12 -0.12)">
      <defs>
       <path id="DejaVuSans-4b" d="M 628 4666 
L 1259 4666 
L 1259 2694 
L 3353 4666 
L 4166 4666 
L 1850 2491 
L 4331 0 
L 3500 0 
L 1259 2247 
L 1259 0 
L 628 0 
L 628 4666 
z
" transform="scale(0.015625)"/>
       <path id="DejaVuSans-79" d="M 2059 -325 
Q 1816 -950 1584 -1140 
Q 1353 -1331 966 -1331 
L 506 -1331 
L 506 -850 
L 844 -850 
Q 1081 -850 1212 -737 
Q 1344 -625 1503 -206 
L 1606 56 
L 191 3500 
L 800 3500 
L 1894 763 
L 2988 3500 
L 3597 3500 
L 2059 -325 
z
" transform="scale(0.015625)"/>
      </defs>
      <use xlink:href="#DejaVuSans-4d"/>
      <use xlink:href="#DejaVuSans-61" x="86.279297"/>
      <use xlink:href="#DejaVuSans-6a" x="147.558594"/>
      <use xlink:href="#DejaVuSans-6f" x="175.341797"/>
      <use xlink:href="#DejaVuSans-72" x="236.523438"/>
      <use xlink:href="#DejaVuSans-20" x="277.636719"/>
      <use xlink:href="#DejaVuSans-4b" x="309.423828"/>
      <use xlink:href="#DejaVuSans-65" x="370"/>
      <use xlink:href="#DejaVuSans-79" x="431.523438"/>
      <use xlink:href="#DejaVuSans-73" x="490.703125"/>
     </g>
    </g>
    <g id="Path3DCollection_10">
     <defs>
      <path id="m1460210b93" d="M 0 -6 
L -1.347084 -1.854102 
L -5.706339 -1.854102 
L -2.179628 0.708204 
L -3.526712 4.854102 
L -0 2.291796 
L 3.526712 4.854102 
L 2.179628 0.708204 
L 5.706339 -1.854102 
L 1.347084 -1.854102 
z
" style="stroke: #000000"/>
     </defs>
     <g>
      <use xlink:href="#m1460210b93" x="428.596504" y="144.891571" style="fill: #ffa500; stroke: #000000"/>
     </g>
    </g>
    <g id="text_23">
     <!-- Minor Keys -->
     <g transform="translate(450.196504 148.041571)scale(0.12 -0.12)">
      <use xlink:href="#DejaVuSans-4d"/>
      <use xlink:href="#DejaVuSans-69" x="86.279297"/>
      <use xlink:href="#DejaVuSans-6e" x="114.0625"/>
      <use xlink:href="#DejaVuSans-6f" x="177.441406"/>
      <use xlink:href="#DejaVuSans-72" x="238.623047"/>
      <use xlink:href="#DejaVuSans-20" x="279.736328"/>
      <use xlink:href="#DejaVuSans-4b" x="311.523438"/>
      <use xlink:href="#DejaVuSans-65" x="372.099609"/>
      <use xlink:href="#DejaVuSans-79" x="433.623047"/>
      <use xlink:href="#DejaVuSans-73" x="492.802734"/>
     </g>
    </g>
   </g>
  </g>
 </g>
 <defs>
  <clipPath id="pfd03fb5464">
   <rect x="2.834646" y="52.868446" width="542.263109" height="542.263109"/>
  </clipPath>
 </defs>
</svg>
